<?xml version="1.0" encoding="utf-8" standalone="no"?>
<!DOCTYPE svg PUBLIC "-//W3C//DTD SVG 1.1//EN"
  "http://www.w3.org/Graphics/SVG/1.1/DTD/svg11.dtd">
<svg xmlns:xlink="http://www.w3.org/1999/xlink" width="460.8pt" height="345.6pt" viewBox="0 0 460.8 345.6" xmlns="http://www.w3.org/2000/svg" version="1.1">
 <metadata>
  <rdf:RDF xmlns:dc="http://purl.org/dc/elements/1.1/" xmlns:cc="http://creativecommons.org/ns#" xmlns:rdf="http://www.w3.org/1999/02/22-rdf-syntax-ns#">
   <cc:Work>
    <dc:type rdf:resource="http://purl.org/dc/dcmitype/StillImage"/>
    <dc:date>2023-02-23T16:36:31.377117</dc:date>
    <dc:format>image/svg+xml</dc:format>
    <dc:creator>
     <cc:Agent>
      <dc:title>Matplotlib v3.5.3, https://matplotlib.org/</dc:title>
     </cc:Agent>
    </dc:creator>
   </cc:Work>
  </rdf:RDF>
 </metadata>
 <defs>
  <style type="text/css">*{stroke-linejoin: round; stroke-linecap: butt}</style>
 </defs>
 <g id="figure_1">
  <g id="patch_1">
   <path d="M 0 345.6 
L 460.8 345.6 
L 460.8 0 
L 0 0 
z
" style="fill: #ffffff"/>
  </g>
  <g id="axes_1">
   <g id="patch_2">
    <path d="M 57.6 307.584 
L 414.72 307.584 
L 414.72 41.472 
L 57.6 41.472 
z
" style="fill: #ffffff"/>
   </g>
   <g id="matplotlib.axis_1">
    <g id="xtick_1">
     <g id="line2d_1">
      <defs>
       <path id="mc82b5c6211" d="M 0 0 
L 0 3.5 
" style="stroke: #000000; stroke-width: 0.8"/>
      </defs>
      <g>
       <use xlink:href="#mc82b5c6211" x="73.832727" y="307.584" style="stroke: #000000; stroke-width: 0.8"/>
      </g>
     </g>
     <g id="text_1">
      <!-- 0 -->
      <g transform="translate(70.651477 322.182437)scale(0.1 -0.1)">
       <defs>
        <path id="DejaVuSans-30" d="M 2034 4250 
Q 1547 4250 1301 3770 
Q 1056 3291 1056 2328 
Q 1056 1369 1301 889 
Q 1547 409 2034 409 
Q 2525 409 2770 889 
Q 3016 1369 3016 2328 
Q 3016 3291 2770 3770 
Q 2525 4250 2034 4250 
z
M 2034 4750 
Q 2819 4750 3233 4129 
Q 3647 3509 3647 2328 
Q 3647 1150 3233 529 
Q 2819 -91 2034 -91 
Q 1250 -91 836 529 
Q 422 1150 422 2328 
Q 422 3509 836 4129 
Q 1250 4750 2034 4750 
z
" transform="scale(0.015625)"/>
       </defs>
       <use xlink:href="#DejaVuSans-30"/>
      </g>
     </g>
    </g>
    <g id="xtick_2">
     <g id="line2d_2">
      <g>
       <use xlink:href="#mc82b5c6211" x="152.814492" y="307.584" style="stroke: #000000; stroke-width: 0.8"/>
      </g>
     </g>
     <g id="text_2">
      <!-- 2000 -->
      <g transform="translate(140.089492 322.182437)scale(0.1 -0.1)">
       <defs>
        <path id="DejaVuSans-32" d="M 1228 531 
L 3431 531 
L 3431 0 
L 469 0 
L 469 531 
Q 828 903 1448 1529 
Q 2069 2156 2228 2338 
Q 2531 2678 2651 2914 
Q 2772 3150 2772 3378 
Q 2772 3750 2511 3984 
Q 2250 4219 1831 4219 
Q 1534 4219 1204 4116 
Q 875 4013 500 3803 
L 500 4441 
Q 881 4594 1212 4672 
Q 1544 4750 1819 4750 
Q 2544 4750 2975 4387 
Q 3406 4025 3406 3419 
Q 3406 3131 3298 2873 
Q 3191 2616 2906 2266 
Q 2828 2175 2409 1742 
Q 1991 1309 1228 531 
z
" transform="scale(0.015625)"/>
       </defs>
       <use xlink:href="#DejaVuSans-32"/>
       <use xlink:href="#DejaVuSans-30" x="63.623047"/>
       <use xlink:href="#DejaVuSans-30" x="127.246094"/>
       <use xlink:href="#DejaVuSans-30" x="190.869141"/>
      </g>
     </g>
    </g>
    <g id="xtick_3">
     <g id="line2d_3">
      <g>
       <use xlink:href="#mc82b5c6211" x="231.796257" y="307.584" style="stroke: #000000; stroke-width: 0.8"/>
      </g>
     </g>
     <g id="text_3">
      <!-- 4000 -->
      <g transform="translate(219.071257 322.182437)scale(0.1 -0.1)">
       <defs>
        <path id="DejaVuSans-34" d="M 2419 4116 
L 825 1625 
L 2419 1625 
L 2419 4116 
z
M 2253 4666 
L 3047 4666 
L 3047 1625 
L 3713 1625 
L 3713 1100 
L 3047 1100 
L 3047 0 
L 2419 0 
L 2419 1100 
L 313 1100 
L 313 1709 
L 2253 4666 
z
" transform="scale(0.015625)"/>
       </defs>
       <use xlink:href="#DejaVuSans-34"/>
       <use xlink:href="#DejaVuSans-30" x="63.623047"/>
       <use xlink:href="#DejaVuSans-30" x="127.246094"/>
       <use xlink:href="#DejaVuSans-30" x="190.869141"/>
      </g>
     </g>
    </g>
    <g id="xtick_4">
     <g id="line2d_4">
      <g>
       <use xlink:href="#mc82b5c6211" x="310.778023" y="307.584" style="stroke: #000000; stroke-width: 0.8"/>
      </g>
     </g>
     <g id="text_4">
      <!-- 6000 -->
      <g transform="translate(298.053023 322.182437)scale(0.1 -0.1)">
       <defs>
        <path id="DejaVuSans-36" d="M 2113 2584 
Q 1688 2584 1439 2293 
Q 1191 2003 1191 1497 
Q 1191 994 1439 701 
Q 1688 409 2113 409 
Q 2538 409 2786 701 
Q 3034 994 3034 1497 
Q 3034 2003 2786 2293 
Q 2538 2584 2113 2584 
z
M 3366 4563 
L 3366 3988 
Q 3128 4100 2886 4159 
Q 2644 4219 2406 4219 
Q 1781 4219 1451 3797 
Q 1122 3375 1075 2522 
Q 1259 2794 1537 2939 
Q 1816 3084 2150 3084 
Q 2853 3084 3261 2657 
Q 3669 2231 3669 1497 
Q 3669 778 3244 343 
Q 2819 -91 2113 -91 
Q 1303 -91 875 529 
Q 447 1150 447 2328 
Q 447 3434 972 4092 
Q 1497 4750 2381 4750 
Q 2619 4750 2861 4703 
Q 3103 4656 3366 4563 
z
" transform="scale(0.015625)"/>
       </defs>
       <use xlink:href="#DejaVuSans-36"/>
       <use xlink:href="#DejaVuSans-30" x="63.623047"/>
       <use xlink:href="#DejaVuSans-30" x="127.246094"/>
       <use xlink:href="#DejaVuSans-30" x="190.869141"/>
      </g>
     </g>
    </g>
    <g id="xtick_5">
     <g id="line2d_5">
      <g>
       <use xlink:href="#mc82b5c6211" x="389.759788" y="307.584" style="stroke: #000000; stroke-width: 0.8"/>
      </g>
     </g>
     <g id="text_5">
      <!-- 8000 -->
      <g transform="translate(377.034788 322.182437)scale(0.1 -0.1)">
       <defs>
        <path id="DejaVuSans-38" d="M 2034 2216 
Q 1584 2216 1326 1975 
Q 1069 1734 1069 1313 
Q 1069 891 1326 650 
Q 1584 409 2034 409 
Q 2484 409 2743 651 
Q 3003 894 3003 1313 
Q 3003 1734 2745 1975 
Q 2488 2216 2034 2216 
z
M 1403 2484 
Q 997 2584 770 2862 
Q 544 3141 544 3541 
Q 544 4100 942 4425 
Q 1341 4750 2034 4750 
Q 2731 4750 3128 4425 
Q 3525 4100 3525 3541 
Q 3525 3141 3298 2862 
Q 3072 2584 2669 2484 
Q 3125 2378 3379 2068 
Q 3634 1759 3634 1313 
Q 3634 634 3220 271 
Q 2806 -91 2034 -91 
Q 1263 -91 848 271 
Q 434 634 434 1313 
Q 434 1759 690 2068 
Q 947 2378 1403 2484 
z
M 1172 3481 
Q 1172 3119 1398 2916 
Q 1625 2713 2034 2713 
Q 2441 2713 2670 2916 
Q 2900 3119 2900 3481 
Q 2900 3844 2670 4047 
Q 2441 4250 2034 4250 
Q 1625 4250 1398 4047 
Q 1172 3844 1172 3481 
z
" transform="scale(0.015625)"/>
       </defs>
       <use xlink:href="#DejaVuSans-38"/>
       <use xlink:href="#DejaVuSans-30" x="63.623047"/>
       <use xlink:href="#DejaVuSans-30" x="127.246094"/>
       <use xlink:href="#DejaVuSans-30" x="190.869141"/>
      </g>
     </g>
    </g>
   </g>
   <g id="matplotlib.axis_2">
    <g id="ytick_1">
     <g id="line2d_6">
      <defs>
       <path id="md590550ea5" d="M 0 0 
L -3.5 0 
" style="stroke: #000000; stroke-width: 0.8"/>
      </defs>
      <g>
       <use xlink:href="#md590550ea5" x="57.6" y="297.508924" style="stroke: #000000; stroke-width: 0.8"/>
      </g>
     </g>
     <g id="text_6">
      <!-- 100 -->
      <g transform="translate(31.5125 301.308143)scale(0.1 -0.1)">
       <defs>
        <path id="DejaVuSans-31" d="M 794 531 
L 1825 531 
L 1825 4091 
L 703 3866 
L 703 4441 
L 1819 4666 
L 2450 4666 
L 2450 531 
L 3481 531 
L 3481 0 
L 794 0 
L 794 531 
z
" transform="scale(0.015625)"/>
       </defs>
       <use xlink:href="#DejaVuSans-31"/>
       <use xlink:href="#DejaVuSans-30" x="63.623047"/>
       <use xlink:href="#DejaVuSans-30" x="127.246094"/>
      </g>
     </g>
    </g>
    <g id="ytick_2">
     <g id="line2d_7">
      <g>
       <use xlink:href="#md590550ea5" x="57.6" y="260.249994" style="stroke: #000000; stroke-width: 0.8"/>
      </g>
     </g>
     <g id="text_7">
      <!-- 150 -->
      <g transform="translate(31.5125 264.049213)scale(0.1 -0.1)">
       <defs>
        <path id="DejaVuSans-35" d="M 691 4666 
L 3169 4666 
L 3169 4134 
L 1269 4134 
L 1269 2991 
Q 1406 3038 1543 3061 
Q 1681 3084 1819 3084 
Q 2600 3084 3056 2656 
Q 3513 2228 3513 1497 
Q 3513 744 3044 326 
Q 2575 -91 1722 -91 
Q 1428 -91 1123 -41 
Q 819 9 494 109 
L 494 744 
Q 775 591 1075 516 
Q 1375 441 1709 441 
Q 2250 441 2565 725 
Q 2881 1009 2881 1497 
Q 2881 1984 2565 2268 
Q 2250 2553 1709 2553 
Q 1456 2553 1204 2497 
Q 953 2441 691 2322 
L 691 4666 
z
" transform="scale(0.015625)"/>
       </defs>
       <use xlink:href="#DejaVuSans-31"/>
       <use xlink:href="#DejaVuSans-35" x="63.623047"/>
       <use xlink:href="#DejaVuSans-30" x="127.246094"/>
      </g>
     </g>
    </g>
    <g id="ytick_3">
     <g id="line2d_8">
      <g>
       <use xlink:href="#md590550ea5" x="57.6" y="222.991063" style="stroke: #000000; stroke-width: 0.8"/>
      </g>
     </g>
     <g id="text_8">
      <!-- 200 -->
      <g transform="translate(31.5125 226.790282)scale(0.1 -0.1)">
       <use xlink:href="#DejaVuSans-32"/>
       <use xlink:href="#DejaVuSans-30" x="63.623047"/>
       <use xlink:href="#DejaVuSans-30" x="127.246094"/>
      </g>
     </g>
    </g>
    <g id="ytick_4">
     <g id="line2d_9">
      <g>
       <use xlink:href="#md590550ea5" x="57.6" y="185.732133" style="stroke: #000000; stroke-width: 0.8"/>
      </g>
     </g>
     <g id="text_9">
      <!-- 250 -->
      <g transform="translate(31.5125 189.531352)scale(0.1 -0.1)">
       <use xlink:href="#DejaVuSans-32"/>
       <use xlink:href="#DejaVuSans-35" x="63.623047"/>
       <use xlink:href="#DejaVuSans-30" x="127.246094"/>
      </g>
     </g>
    </g>
    <g id="ytick_5">
     <g id="line2d_10">
      <g>
       <use xlink:href="#md590550ea5" x="57.6" y="148.473203" style="stroke: #000000; stroke-width: 0.8"/>
      </g>
     </g>
     <g id="text_10">
      <!-- 300 -->
      <g transform="translate(31.5125 152.272421)scale(0.1 -0.1)">
       <defs>
        <path id="DejaVuSans-33" d="M 2597 2516 
Q 3050 2419 3304 2112 
Q 3559 1806 3559 1356 
Q 3559 666 3084 287 
Q 2609 -91 1734 -91 
Q 1441 -91 1130 -33 
Q 819 25 488 141 
L 488 750 
Q 750 597 1062 519 
Q 1375 441 1716 441 
Q 2309 441 2620 675 
Q 2931 909 2931 1356 
Q 2931 1769 2642 2001 
Q 2353 2234 1838 2234 
L 1294 2234 
L 1294 2753 
L 1863 2753 
Q 2328 2753 2575 2939 
Q 2822 3125 2822 3475 
Q 2822 3834 2567 4026 
Q 2313 4219 1838 4219 
Q 1578 4219 1281 4162 
Q 984 4106 628 3988 
L 628 4550 
Q 988 4650 1302 4700 
Q 1616 4750 1894 4750 
Q 2613 4750 3031 4423 
Q 3450 4097 3450 3541 
Q 3450 3153 3228 2886 
Q 3006 2619 2597 2516 
z
" transform="scale(0.015625)"/>
       </defs>
       <use xlink:href="#DejaVuSans-33"/>
       <use xlink:href="#DejaVuSans-30" x="63.623047"/>
       <use xlink:href="#DejaVuSans-30" x="127.246094"/>
      </g>
     </g>
    </g>
    <g id="ytick_6">
     <g id="line2d_11">
      <g>
       <use xlink:href="#md590550ea5" x="57.6" y="111.214272" style="stroke: #000000; stroke-width: 0.8"/>
      </g>
     </g>
     <g id="text_11">
      <!-- 350 -->
      <g transform="translate(31.5125 115.013491)scale(0.1 -0.1)">
       <use xlink:href="#DejaVuSans-33"/>
       <use xlink:href="#DejaVuSans-35" x="63.623047"/>
       <use xlink:href="#DejaVuSans-30" x="127.246094"/>
      </g>
     </g>
    </g>
    <g id="ytick_7">
     <g id="line2d_12">
      <g>
       <use xlink:href="#md590550ea5" x="57.6" y="73.955342" style="stroke: #000000; stroke-width: 0.8"/>
      </g>
     </g>
     <g id="text_12">
      <!-- 400 -->
      <g transform="translate(31.5125 77.75456)scale(0.1 -0.1)">
       <use xlink:href="#DejaVuSans-34"/>
       <use xlink:href="#DejaVuSans-30" x="63.623047"/>
       <use xlink:href="#DejaVuSans-30" x="127.246094"/>
      </g>
     </g>
    </g>
   </g>
   <g id="line2d_13">
    <path d="M 73.832727 266.82545 
L 73.990691 277.666308 
L 74.148654 271.674327 
L 74.188145 272.829354 
L 74.227636 270.946288 
L 74.504072 240.259087 
L 74.543563 240.888018 
L 74.701527 259.42061 
L 74.898981 282.840083 
L 74.938472 282.889265 
L 75.214908 273.75263 
L 75.29389 273.81448 
L 75.333381 273.789144 
L 75.412363 260.521239 
L 75.491344 246.482819 
L 75.530835 248.602107 
L 75.649308 260.551046 
L 75.846762 281.687292 
L 75.886253 281.463739 
L 76.044217 273.206414 
L 76.281162 255.396646 
L 76.320653 254.032969 
L 76.399635 239.338047 
L 76.478616 242.927572 
L 76.755053 281.383259 
L 76.873525 274.855495 
L 77.031489 246.871057 
L 77.07098 250.611854 
L 77.110471 253.628337 
L 77.149961 252.544847 
L 77.347416 232.498052 
L 77.386907 233.236524 
L 77.742325 282.152284 
L 77.821306 275.699037 
L 78.058252 247.865125 
L 78.216215 246.115446 
L 78.295197 231.991331 
L 78.374179 237.594329 
L 78.690106 281.323645 
L 78.729597 279.623893 
L 78.927051 249.225076 
L 79.045524 253.554564 
L 79.085015 253.167071 
L 79.203487 242.414889 
L 79.242978 230.88325 
L 79.32196 235.961642 
L 79.637887 278.748308 
L 79.716869 271.892665 
L 79.835341 248.741455 
L 79.914323 251.207251 
L 79.993305 253.127577 
L 80.032796 252.895081 
L 80.111778 250.588008 
L 80.23025 231.936933 
L 80.269741 235.869985 
L 80.388214 255.852695 
L 80.546177 276.449432 
L 80.585668 276.117827 
L 80.66465 269.43134 
L 80.822613 247.571525 
L 80.862104 249.358463 
L 80.901595 251.500852 
L 80.941086 248.288387 
L 80.980577 250.88608 
L 81.138541 232.798359 
L 81.217522 237.583151 
L 81.375486 262.326062 
L 81.533449 275.242988 
L 81.612431 272.581955 
L 81.770395 261.900565 
L 81.888867 264.342515 
L 82.046831 252.331726 
L 82.125813 242.529647 
L 82.165303 245.166089 
L 82.323267 266.007989 
L 82.481231 278.798235 
L 82.560212 276.976273 
L 82.678685 270.888164 
L 82.718176 271.046887 
L 82.797158 273.783183 
L 82.836648 272.724284 
L 82.955121 267.082537 
L 83.073594 243.463355 
L 83.152576 248.000003 
L 83.389521 276.194581 
L 83.429012 275.986676 
L 83.507993 269.716743 
L 83.744939 238.968438 
L 83.823921 243.531912 
L 83.863411 241.929033 
L 83.902902 242.306093 
L 83.981884 230.344486 
L 84.060866 235.626312 
L 84.218829 263.998988 
L 84.376793 279.961458 
L 84.416284 278.090315 
L 84.574247 250.045518 
L 84.69272 256.049422 
L 84.771702 258.520434 
L 84.811193 258.407912 
L 84.890174 250.980717 
L 84.969156 238.66217 
L 85.008647 243.219682 
L 85.285083 279.743866 
L 85.364065 277.731884 
L 85.482538 254.268445 
L 85.60101 242.399986 
L 85.640501 244.020004 
L 85.719483 247.915052 
L 85.758974 246.88447 
L 85.798465 247.265257 
L 85.877446 233.688102 
L 85.956428 238.218043 
L 86.232864 280.091865 
L 86.311846 278.725952 
L 86.588282 249.713914 
L 86.667264 250.729592 
L 86.706755 253.823574 
L 86.746246 253.479301 
L 86.825228 238.486307 
L 86.904209 242.721157 
L 87.062173 270.820352 
L 87.180646 281.265521 
L 87.220136 280.950311 
L 87.299118 274.166204 
L 87.536064 241.20919 
L 87.654536 243.404486 
L 87.694027 245.072196 
L 87.773009 237.676298 
L 87.8125 240.27101 
L 88.167918 283.761124 
L 88.246899 281.128408 
L 88.483845 264.90736 
L 88.523336 268.365734 
L 88.562826 267.34782 
L 88.760281 248.835348 
L 88.839263 254.068737 
L 89.115699 282.749172 
L 89.194681 280.976392 
L 89.352644 276.043309 
L 89.392135 276.874929 
L 89.62908 261.292499 
L 89.708062 249.554445 
L 89.747553 252.521747 
L 89.905516 274.458314 
L 90.023989 283.890785 
L 90.06348 283.296878 
L 90.142462 276.903991 
L 90.260934 258.872159 
L 90.339916 259.333424 
L 90.418898 255.37131 
L 90.458389 256.862412 
L 90.49788 257.975709 
L 90.576861 250.675194 
L 90.655843 239.701694 
L 90.695334 243.489437 
L 90.97177 280.80053 
L 91.050752 278.807177 
L 91.327188 248.558887 
L 91.366679 250.476976 
L 91.603624 235.087548 
L 91.761588 259.223138 
L 91.919551 279.233419 
L 91.959042 279.17455 
L 92.038024 273.461265 
L 92.195988 248.360669 
L 92.235479 250.057441 
L 92.31446 251.801159 
L 92.353951 250.829446 
L 92.393442 250.66029 
L 92.551406 231.249878 
L 92.630387 239.983371 
L 92.867333 274.854004 
L 92.946314 272.335301 
L 93.143769 239.431939 
L 93.262241 245.769683 
L 93.301732 251.087278 
L 93.380714 250.963578 
L 93.499187 234.916902 
L 93.538678 238.499721 
L 93.854605 278.313123 
L 93.894096 276.547795 
L 94.210023 242.879135 
L 94.249514 246.259266 
L 94.328495 250.484428 
L 94.367986 247.725777 
L 94.446968 238.80897 
L 94.486459 243.251725 
L 94.644422 267.673463 
L 94.802386 278.342185 
L 94.881368 274.580524 
L 95.078822 263.467675 
L 95.118313 262.201617 
L 95.157804 263.811202 
L 95.197295 265.807536 
L 95.236786 264.376793 
L 95.315767 255.72974 
L 95.394749 240.275481 
L 95.43424 241.89699 
L 95.592204 261.742587 
L 95.750167 273.723568 
L 95.789658 273.665444 
L 95.947622 266.601151 
L 96.026603 268.156339 
L 96.105585 269.138484 
L 96.184567 266.288921 
L 96.34253 240.761338 
L 96.421512 245.658652 
L 96.658457 274.497064 
L 96.697948 274.069331 
L 96.77693 267.504308 
L 96.934894 242.743513 
L 96.974384 246.00516 
L 97.092857 249.924799 
L 97.171839 247.578977 
L 97.250821 233.012971 
L 97.329802 237.044387 
L 97.645729 278.165578 
L 97.68522 276.992667 
L 98.001147 236.759729 
L 98.080129 238.53996 
L 98.11962 239.182304 
L 98.198602 230.073986 
L 98.277584 235.692633 
L 98.593511 278.612685 
L 98.633002 276.687889 
L 98.909438 240.962536 
L 98.988419 242.537098 
L 99.067401 244.869507 
L 99.185874 232.903429 
L 99.225365 237.713557 
L 99.501801 276.574622 
L 99.580783 274.991862 
L 99.778237 241.467022 
L 99.89671 244.830013 
L 100.015182 246.29727 
L 100.133655 227.632036 
L 100.212637 233.678415 
L 100.489073 268.839668 
L 100.528564 266.260605 
L 100.765509 232.785691 
L 100.844491 235.095 
L 100.962964 237.841728 
L 101.081436 224.160249 
L 101.120927 228.307168 
L 101.436854 266.467019 
L 101.515836 264.192734 
L 101.673799 252.105192 
L 101.71329 252.819818 
L 101.871254 260.323021 
L 101.910745 259.091986 
L 102.029217 238.504192 
L 102.108199 243.265883 
L 102.384635 270.326299 
L 102.463617 268.74652 
L 102.740053 252.959912 
L 102.779544 253.407019 
L 102.819035 253.430864 
L 102.858526 253.713287 
L 102.976999 234.810341 
L 103.05598 241.148085 
L 103.332417 271.031983 
L 103.371907 270.298727 
L 103.529871 254.460701 
L 103.687834 244.729414 
L 103.727325 245.113181 
L 103.766816 247.357659 
L 103.806307 246.877019 
L 103.92478 233.266331 
L 103.964271 238.445323 
L 104.240707 275.665504 
L 104.319689 274.894989 
L 104.635616 247.678831 
L 104.714597 249.258609 
L 104.754088 249.338344 
L 104.872561 234.486934 
L 104.912052 239.58172 
L 105.188488 276.405466 
L 105.26747 275.02316 
L 105.583397 242.510272 
L 105.622888 242.760652 
L 105.701869 244.931357 
L 105.74136 243.069156 
L 105.820342 232.021138 
L 105.859833 236.519036 
L 106.136269 276.469552 
L 106.215251 274.327908 
L 106.452196 241.392504 
L 106.531178 246.571495 
L 106.649651 250.204986 
L 106.689142 248.910611 
L 106.768123 235.442998 
L 106.807614 239.233722 
L 107.123541 277.476288 
L 107.202523 271.003666 
L 107.399977 240.50127 
L 107.439468 242.289699 
L 107.597432 251.099946 
L 107.636923 251.050764 
L 107.715905 238.889449 
L 107.755395 242.645149 
L 108.031832 277.972577 
L 108.110813 276.790724 
L 108.347759 261.141973 
L 108.38725 261.662107 
L 108.505722 265.484874 
L 108.545213 265.341799 
L 108.663686 247.168383 
L 108.782158 254.445798 
L 109.019104 279.108974 
L 109.058595 278.757995 
L 109.177067 272.801782 
L 109.414012 254.771441 
L 109.453503 255.368329 
L 109.492994 255.689501 
L 109.532485 255.480106 
L 109.611467 240.104835 
L 109.650958 244.036398 
L 109.808921 263.578707 
L 109.927394 272.294316 
L 109.966885 271.745864 
L 110.045867 264.504964 
L 110.20383 236.830521 
L 110.243321 237.069723 
L 110.361794 240.217357 
L 110.440775 243.119828 
L 110.480266 242.186864 
L 110.559248 229.106744 
L 110.598739 232.3207 
L 110.914666 272.02158 
L 110.993648 265.882054 
L 111.230593 235.656864 
L 111.270084 233.444429 
L 111.349066 235.138965 
L 111.428047 238.367824 
L 111.507029 228.947276 
L 111.54652 233.226092 
L 111.822956 272.207875 
L 111.901938 270.175773 
L 112.138883 234.836423 
L 112.217865 239.199443 
L 112.336338 242.879881 
L 112.375829 240.692036 
L 112.45481 232.208923 
L 112.494301 236.289521 
L 112.770737 274.909893 
L 112.849719 272.898656 
L 113.086665 237.798508 
L 113.205137 240.720353 
L 113.284119 243.229369 
L 113.32361 242.306093 
L 113.402592 231.149279 
L 113.442082 235.007069 
L 113.718519 271.809205 
L 113.7975 269.603476 
L 114.073937 238.415515 
L 114.113427 238.932669 
L 114.2319 242.211455 
L 114.271391 241.037799 
L 114.350373 233.422074 
L 114.389864 237.002657 
L 114.6663 274.518674 
L 114.745282 273.803302 
L 115.1007 253.937586 
L 115.179681 253.805689 
L 115.298154 241.12573 
L 115.377136 246.475367 
L 115.653572 275.292915 
L 115.732554 274.245193 
L 115.930008 261.585354 
L 116.00899 262.890907 
L 116.087972 264.55042 
L 116.127462 264.215089 
L 116.206444 253.541151 
L 116.245935 247.785391 
L 116.285426 249.61406 
L 116.601353 277.912962 
L 116.640844 276.154341 
L 116.798807 253.8504 
L 116.91728 246.067755 
L 116.956771 246.900119 
L 117.075244 248.116251 
L 117.193716 236.319328 
L 117.233207 240.85523 
L 117.549134 277.694625 
L 117.588625 276.399505 
L 117.82557 249.497067 
L 117.865061 251.191603 
L 118.023025 256.100094 
L 118.141497 239.974429 
L 118.220479 248.169903 
L 118.457425 277.001609 
L 118.496915 276.427076 
L 118.575897 268.711497 
L 118.773352 244.492447 
L 118.970806 248.02981 
L 119.010297 247.704912 
L 119.089279 234.811832 
L 119.12877 237.222485 
L 119.405206 274.686339 
L 119.484188 272.6058 
L 119.760624 237.146476 
L 119.839605 241.27104 
L 119.918587 244.882921 
L 119.958078 244.843426 
L 120.03706 232.983909 
L 120.076551 237.475845 
L 120.392478 273.957554 
L 120.431969 272.537989 
L 120.708405 240.585476 
L 120.787387 242.502075 
L 120.866368 245.865066 
L 120.905859 244.871743 
L 120.984841 236.237358 
L 121.024332 239.78888 
L 121.300768 276.319025 
L 121.340259 276.248233 
L 121.419241 272.225759 
L 121.656186 259.242512 
L 121.735168 259.707504 
L 121.81415 261.159857 
L 121.85364 259.799906 
L 121.932622 244.292739 
L 122.011604 248.391222 
L 122.28804 274.470237 
L 122.367022 272.137828 
L 122.564476 264.057111 
L 122.603967 264.411816 
L 122.72244 267.459597 
L 122.761931 267.443203 
L 122.840913 255.3959 
L 122.880403 245.62959 
L 122.959385 249.759369 
L 123.235821 275.699037 
L 123.275312 274.246684 
L 123.63073 237.81043 
L 123.670221 239.672632 
L 123.749203 241.486397 
L 123.828185 233.400463 
L 123.867675 238.013119 
L 124.183603 278.211779 
L 124.223093 276.44347 
L 124.53902 242.8769 
L 124.578511 243.358285 
L 124.657493 248.417303 
L 124.696984 247.124418 
L 124.775966 237.711322 
L 124.815457 241.593702 
L 125.091893 281.59489 
L 125.170875 278.791528 
L 125.368329 250.117055 
L 125.447311 252.781814 
L 125.605274 257.661243 
L 125.644765 257.231275 
L 125.723747 244.148175 
L 125.763238 247.433667 
L 126.039674 285.741064 
L 126.118656 283.090463 
L 126.31611 255.153717 
L 126.395092 256.869864 
L 126.513565 260.393813 
L 126.553055 260.371458 
L 126.671528 244.040124 
L 126.75051 249.477692 
L 127.026946 280.868341 
L 127.066437 279.199141 
L 127.2244 254.827329 
L 127.303382 256.87508 
L 127.382364 260.240307 
L 127.461346 259.771589 
L 127.500837 259.33864 
L 127.579818 251.653613 
L 127.619309 244.964145 
L 127.6588 247.73919 
L 127.974727 283.05544 
L 128.053709 279.614205 
L 128.290654 260.419895 
L 128.330145 262.987035 
L 128.448618 273.379296 
L 128.488109 270.884438 
L 128.56709 255.674597 
L 128.646072 258.62923 
L 128.922508 285.624071 
L 129.00149 283.308801 
L 129.356908 266.966289 
L 129.43589 263.375273 
L 129.514872 250.912906 
L 129.554363 252.859312 
L 129.830799 285.337922 
L 129.90978 282.910875 
L 130.186217 248.046204 
L 130.265198 252.961402 
L 130.34418 254.233422 
L 130.383671 253.646221 
L 130.462653 240.58473 
L 130.541635 246.541688 
L 130.77858 274.266058 
L 130.818071 273.952338 
L 130.897053 266.212913 
L 131.015525 247.947095 
L 131.055016 249.152049 
L 131.21298 254.26621 
L 131.252471 253.982297 
L 131.331452 249.46875 
L 131.410434 234.938512 
L 131.449925 237.228446 
L 131.726361 274.763093 
L 131.805343 272.392679 
L 131.963306 252.708041 
L 132.002797 254.775912 
L 132.160761 263.021313 
L 132.200252 262.706103 
L 132.239743 262.83949 
L 132.358215 245.584879 
L 132.437197 251.728131 
L 132.674142 282.907895 
L 132.713633 282.436197 
L 132.792615 275.094697 
L 132.911088 253.563506 
L 132.990069 258.117293 
L 133.02956 257.087456 
L 133.108542 261.269398 
L 133.187524 259.37888 
L 133.305996 240.251636 
L 133.384978 244.246538 
L 133.661414 274.546991 
L 133.700905 272.261528 
L 133.858869 250.438972 
L 133.937851 253.36976 
L 134.095814 257.857971 
L 134.135305 257.066591 
L 134.253778 240.926767 
L 134.332759 246.199651 
L 134.609196 278.157381 
L 134.648686 277.792989 
L 134.846141 268.795702 
L 134.925123 268.851591 
L 134.964613 268.759934 
L 135.122577 262.642762 
L 135.201559 248.039497 
L 135.280541 250.976991 
L 135.556977 278.822826 
L 135.635958 277.034397 
L 135.675449 275.490387 
L 135.754431 276.605919 
L 135.951886 281.161941 
L 135.991376 280.541207 
L 136.070358 272.682554 
L 136.188831 251.97106 
L 136.228322 254.383948 
L 136.465267 278.205073 
L 136.504758 277.438284 
L 136.58374 269.95371 
L 136.702212 253.532954 
L 136.741703 254.380967 
L 136.939158 262.205343 
L 136.978648 261.52574 
L 137.097121 242.37614 
L 137.176103 248.696745 
L 137.413048 281.854957 
L 137.452539 281.726041 
L 137.531521 275.131956 
L 137.649993 261.713525 
L 137.689484 262.71728 
L 137.847448 266.09741 
L 137.886939 265.933471 
L 137.965921 262.578677 
L 138.044902 249.967274 
L 138.123884 255.85344 
L 138.360829 285.451189 
L 138.40032 284.749231 
L 138.479302 276.540343 
L 138.597775 262.163613 
L 138.637266 263.182272 
L 138.795229 267.364959 
L 138.874211 266.155534 
L 138.953193 258.081524 
L 138.992683 249.527619 
L 139.071665 255.636593 
L 139.308611 289.151746 
L 139.348101 289.121194 
L 139.427083 281.998032 
L 139.545556 261.870757 
L 139.585047 265.504993 
L 139.703519 266.911146 
L 139.861483 261.029451 
L 139.940465 252.044087 
L 140.019446 258.204479 
L 140.295883 292.27479 
L 140.374864 286.341678 
L 140.572319 268.542341 
L 140.61181 269.30764 
L 140.651301 269.045337 
L 140.769773 267.09744 
L 140.888246 255.732721 
L 140.967228 260.98325 
L 141.204173 288.881992 
L 141.283155 286.660614 
L 141.441118 279.638051 
L 141.599082 283.61656 
L 141.638573 285.115859 
L 141.678063 284.645651 
L 141.757045 278.673045 
L 141.875518 260.992192 
L 141.915009 262.858119 
L 142.033481 276.691615 
L 142.191445 286.41545 
L 142.349408 282.193268 
L 142.42839 286.362543 
L 142.467881 286.35062 
L 142.507372 283.787951 
L 142.586354 284.201525 
L 142.665336 281.988344 
L 142.823299 257.515934 
L 142.86279 260.957914 
L 143.099735 279.829562 
L 143.178717 272.98137 
L 143.29719 249.669948 
L 143.336681 250.314528 
L 143.573626 262.243347 
L 143.613117 261.73588 
L 143.731589 246.844231 
L 143.810571 252.774362 
L 144.008026 279.44803 
L 144.087007 277.576887 
L 144.402934 246.498468 
L 144.442425 245.165343 
L 144.521407 249.564133 
L 144.560898 249.248177 
L 144.63988 246.532746 
L 144.679371 242.935024 
L 144.718861 246.109485 
L 144.955807 281.90861 
L 145.034789 280.26102 
L 145.232243 248.868136 
L 145.350716 253.35113 
L 145.390206 265.113775 
L 145.469188 256.508452 
L 145.587661 253.743094 
L 145.627152 250.577576 
L 145.666643 253.464398 
L 145.943079 287.951264 
L 145.98257 286.461652 
L 146.259006 247.558112 
L 146.377479 249.222841 
L 146.495951 251.690872 
L 146.535442 251.324245 
L 146.574933 248.878568 
L 146.614424 252.499391 
L 146.851369 283.563652 
L 146.930351 281.000983 
L 147.088314 253.760233 
L 147.206787 257.638143 
L 147.364751 266.718889 
L 147.404241 266.216639 
L 147.483223 260.19038 
L 147.562205 253.429374 
L 147.601696 256.591912 
L 147.838641 280.984589 
L 147.917623 278.171539 
L 148.036096 271.091598 
L 148.273041 286.193387 
L 148.352023 284.000327 
L 148.509986 265.649558 
L 148.549477 268.276313 
L 148.786422 287.154668 
L 148.825913 286.488478 
L 148.944386 281.480133 
L 148.983877 281.557631 
L 149.220822 290.560879 
L 149.299804 286.148676 
L 149.457767 265.980417 
L 149.497258 270.344183 
L 149.694713 289.247874 
L 149.773694 286.230646 
L 149.931658 260.679217 
L 150.01064 266.233033 
L 150.168603 270.626606 
L 150.208094 270.347164 
L 150.326567 264.743421 
L 150.366058 259.427317 
L 150.405549 259.568155 
L 150.642494 289.017614 
L 150.721476 286.440041 
L 150.879439 262.164358 
L 150.958421 266.056426 
L 151.076894 269.05875 
L 151.116384 268.62133 
L 151.274348 263.909566 
L 151.313839 258.878865 
L 151.35333 259.639693 
L 151.629766 292.240512 
L 151.669257 290.595157 
L 152.024675 257.147815 
L 152.064166 257.022625 
L 152.143147 259.039824 
L 152.182638 258.028616 
L 152.26162 253.93535 
L 152.301111 257.067336 
L 152.577547 291.888042 
L 152.617038 290.422276 
L 152.853983 261.58759 
L 152.972456 262.587619 
L 153.011947 264.997527 
L 153.090929 263.045159 
L 153.16991 260.519003 
L 153.209401 255.759548 
L 153.248892 256.87657 
L 153.525328 292.59 
L 153.564819 291.810544 
L 153.683292 270.999941 
L 153.801764 254.813916 
L 153.841255 259.058453 
L 153.880746 260.962385 
L 153.920237 257.998064 
L 153.959728 256.85496 
L 153.999219 258.360221 
L 154.117691 260.635996 
L 154.196673 260.276075 
L 154.473109 294.139972 
L 154.5126 294.030431 
L 154.828527 283.866194 
L 154.868018 283.799128 
L 154.907509 284.847595 
L 154.947 283.477211 
L 155.144454 268.694358 
L 155.420891 294.63179 
L 155.499872 293.312078 
L 156.052745 263.955022 
L 156.131727 270.16236 
L 156.329181 291.709944 
L 156.368672 291.27327 
L 156.447654 284.694088 
L 156.566126 262.948286 
L 156.645108 265.022863 
L 156.842562 273.04173 
L 156.882053 271.85317 
L 157.040017 258.741752 
L 157.079508 263.478853 
L 157.276962 287.959461 
L 157.316453 287.640524 
L 157.395435 280.59337 
L 157.513907 263.400609 
L 157.553398 265.375332 
L 157.750853 272.401622 
L 157.790344 272.563325 
L 157.908816 265.897703 
L 157.987798 259.705268 
L 158.264234 291.819486 
L 158.303725 289.54073 
L 158.619652 257.12695 
L 158.659143 258.427287 
L 158.698634 257.151541 
L 158.738125 258.556948 
L 158.777616 260.041344 
L 158.817107 259.872188 
L 158.896088 254.909299 
L 158.935579 257.591942 
L 159.212015 291.700257 
L 159.251506 289.993798 
L 159.369979 267.306835 
L 159.488452 254.940596 
L 159.527942 255.163405 
L 159.685906 270.958956 
L 159.764888 263.71731 
L 159.88336 255.546427 
L 159.922851 259.676952 
L 160.120306 285.0786 
L 160.159797 284.778293 
L 160.238778 278.355599 
L 160.436233 262.436348 
L 160.475724 261.028706 
L 160.515214 262.54887 
L 160.673178 267.714448 
L 160.712669 266.28147 
L 160.831142 255.368329 
L 160.870632 258.509257 
L 161.107578 281.963008 
L 161.186559 279.427911 
L 161.265541 274.847298 
L 161.305032 275.227339 
L 161.541977 287.361082 
L 161.620959 284.887089 
L 161.778923 264.835823 
L 161.818414 267.146622 
L 162.09485 290.134637 
L 162.292304 281.663446 
L 162.331795 281.756594 
L 162.410777 289.697217 
L 162.450268 289.066051 
L 162.489759 289.260542 
L 162.529249 290.452828 
L 162.726704 270.137769 
L 162.766195 272.842022 
L 162.963649 292.640673 
L 163.00314 292.432023 
L 163.082122 285.966108 
L 163.240085 269.167546 
L 163.279576 270.938836 
L 163.43754 272.919521 
L 163.516522 271.275657 
L 163.674485 261.349878 
L 163.91143 292.77704 
L 163.990412 290.66893 
L 164.148376 269.790516 
L 164.227357 271.620674 
L 164.306339 273.08346 
L 164.34583 272.747384 
L 164.424812 271.66464 
L 164.622266 261.606964 
L 164.898702 293.344866 
L 164.977684 286.798472 
L 165.135648 263.875288 
L 165.175139 267.027393 
L 165.25412 271.87329 
L 165.293611 271.130347 
L 165.570047 259.359505 
L 165.846484 294.164563 
L 165.925465 287.598049 
L 166.12292 268.856062 
L 166.162411 269.320308 
L 166.201902 269.061731 
L 166.517829 259.347583 
L 166.794265 294.055022 
L 166.833756 292.697306 
L 167.070701 270.044622 
L 167.110192 270.308415 
L 167.149683 271.634833 
L 167.189174 269.898567 
L 167.268155 266.03109 
L 167.307646 266.619781 
L 167.347137 269.05577 
L 167.386628 268.7033 
L 167.46561 263.865601 
L 167.505101 267.800889 
L 167.742046 294.294224 
L 167.781537 294.27634 
L 168.057973 278.202837 
L 168.097464 280.995021 
L 168.136955 283.228322 
L 168.176446 281.848996 
L 168.413391 267.113834 
L 168.729318 295.009595 
L 168.8083 292.884346 
L 168.887282 287.316371 
L 169.084736 274.687084 
L 169.124227 274.731795 
L 169.163718 275.452383 
L 169.361172 266.382069 
L 169.598117 292.966316 
L 169.637608 292.841871 
L 169.71659 286.960176 
L 169.914045 255.611257 
L 169.953535 255.645535 
L 170.15099 258.246209 
L 170.269462 255.779667 
L 170.348444 263.130109 
L 170.58539 290.81573 
L 170.664371 283.26409 
L 170.822335 264.182301 
L 170.980298 270.932129 
L 171.019789 270.853886 
L 171.098771 268.360518 
L 171.256735 258.926557 
L 171.533171 292.632476 
L 171.572662 290.848518 
L 171.92808 259.258161 
L 171.96757 259.583804 
L 172.007061 262.385676 
L 172.046552 261.232139 
L 172.165025 257.49954 
L 172.204516 257.899701 
L 172.480952 293.620582 
L 172.520443 292.187604 
L 172.638915 272.026051 
L 172.83637 254.710336 
L 172.954842 257.267789 
L 173.073315 257.023371 
L 173.112806 256.126175 
L 173.152297 257.441416 
L 173.389242 290.233746 
L 173.468224 288.261258 
L 173.705169 258.503295 
L 173.74466 260.556262 
L 173.902624 265.0713 
L 174.100078 259.04504 
L 174.376514 289.793345 
L 174.455496 286.912485 
L 174.65295 277.187904 
L 174.692441 280.413037 
L 174.731932 279.389161 
L 174.771423 277.787027 
L 174.889896 282.998807 
L 175.047859 268.099705 
L 175.08735 270.774897 
L 175.324295 293.020714 
L 175.363786 293.04605 
L 175.52175 289.588421 
L 175.561241 290.407372 
L 175.600732 289.64729 
L 175.99564 268.029659 
L 176.272077 293.503589 
L 176.311567 291.81725 
L 176.666985 258.191065 
L 176.785458 266.9104 
L 176.824949 265.197235 
L 176.86444 264.688278 
L 176.943422 260.017498 
L 177.180367 292.578823 
L 177.259349 290.825417 
L 177.496294 266.008734 
L 177.535785 266.69877 
L 177.575276 267.193568 
L 177.891203 256.619484 
L 178.167639 294.221942 
L 178.20713 293.126529 
L 178.602039 256.652272 
L 178.64153 266.872396 
L 178.720511 266.53185 
L 178.838984 257.773765 
L 179.075929 287.329039 
L 179.11542 287.113683 
L 179.194402 280.930936 
L 179.352365 261.518288 
L 179.391856 262.636056 
L 179.431347 261.735135 
L 179.470838 263.224747 
L 179.54982 263.628634 
L 179.589311 266.07431 
L 179.628802 264.915557 
L 179.786765 255.838537 
L 179.826256 260.524965 
L 180.063201 287.103995 
L 180.142183 280.034486 
L 180.260656 264.98933 
L 180.300147 265.534055 
L 180.537092 272.302513 
L 180.576583 272.20564 
L 180.734546 262.815644 
L 180.774037 266.288176 
L 181.010983 292.174936 
L 181.089964 289.483351 
L 181.208437 283.100151 
L 181.287419 283.956361 
L 181.32691 284.056215 
L 181.3664 284.501832 
L 181.405891 284.363229 
L 181.563855 277.417419 
L 181.682328 268.278548 
L 181.721818 270.801723 
L 181.958764 295.484274 
L 181.998255 295.412737 
L 182.116727 290.654026 
L 182.274691 279.012846 
L 182.314182 279.565023 
L 182.353673 282.549464 
L 182.432654 281.711883 
L 182.472145 283.004023 
L 182.630109 267.982712 
L 182.6696 271.552863 
L 182.867054 293.818055 
L 182.906545 293.496138 
L 182.985527 286.654653 
L 183.103999 267.367195 
L 183.182981 268.979761 
L 183.380435 272.323378 
L 183.498908 267.021432 
L 183.57789 260.173986 
L 183.617381 264.979643 
L 183.854326 292.283732 
L 183.933308 286.145696 
L 184.091271 261.371488 
L 184.130762 263.513131 
L 184.209744 268.899282 
L 184.288726 268.591523 
L 184.48618 261.930372 
L 184.525671 259.40049 
L 184.802107 293.669019 
L 184.841598 292.520699 
L 185.35498 237.167341 
L 185.433961 239.110022 
L 185.473452 238.4565 
L 185.749888 286.703835 
L 185.789379 286.670302 
L 185.907852 267.398492 
L 186.105306 245.273394 
L 186.184288 243.035623 
L 186.223779 243.543089 
L 186.26327 244.737611 
L 186.302761 244.258461 
L 186.381743 243.471552 
L 186.421233 243.614627 
L 186.579197 274.677397 
L 186.73716 286.902797 
L 186.816142 279.483799 
L 187.013597 258.431013 
L 187.290033 262.992251 
L 187.329524 262.751559 
L 187.369015 261.38192 
L 187.645451 292.940234 
L 187.724433 290.758351 
L 187.882396 283.26409 
L 187.921887 285.206026 
L 188.07985 288.906583 
L 188.158832 284.510774 
L 188.316796 269.944022 
L 188.356287 271.8949 
L 188.632723 295.488 
L 188.751195 294.139227 
L 189.264577 255.340757 
L 189.541013 291.79713 
L 189.619995 288.571997 
L 189.85694 256.070287 
L 189.935922 256.814721 
L 189.975413 255.489048 
L 190.014904 258.509257 
L 190.093886 256.959285 
L 190.133376 257.222333 
L 190.172867 256.031538 
L 190.212358 257.04051 
L 190.488794 292.879875 
L 190.528285 291.636172 
L 190.646758 271.695192 
L 190.804721 257.04051 
L 190.844212 259.682168 
L 190.883703 255.638829 
L 190.923194 254.841488 
L 190.962685 249.107338 
L 191.041667 250.70202 
L 191.081158 250.860743 
L 191.120648 251.781039 
L 191.160139 250.217654 
L 191.436576 292.33813 
L 191.476066 291.082504 
L 191.555048 280.839279 
L 191.752503 253.885423 
L 191.791993 253.565742 
L 191.831484 253.799728 
L 191.870975 254.738653 
L 191.910466 258.727594 
L 191.989448 257.411609 
L 192.028939 254.951774 
L 192.107921 256.869864 
L 192.384357 292.554977 
L 192.423848 291.282212 
L 192.621302 265.439418 
L 192.779266 267.325465 
L 193.016211 260.852843 
L 193.055702 257.433964 
L 193.095193 262.75752 
L 193.332138 292.011742 
L 193.41112 287.349904 
L 193.569083 266.601896 
L 193.648065 266.680885 
L 193.845519 262.817879 
L 193.924501 265.417808 
L 193.963992 264.419268 
L 194.003483 261.216491 
L 194.042974 265.227787 
L 194.279919 293.467821 
L 194.31941 293.446956 
L 194.398392 290.522875 
L 194.595846 272.031268 
L 194.635337 272.473159 
L 194.674828 275.166979 
L 194.75381 274.131926 
L 194.951264 267.075085 
L 194.990755 268.931325 
L 195.2277 292.183133 
L 195.267191 292.116812 
L 195.385664 290.011682 
L 195.543627 286.197858 
L 195.622609 286.722464 
L 195.859554 269.771141 
L 195.899045 267.282244 
L 195.938536 270.458941 
L 196.175481 292.873913 
L 196.254463 287.62413 
L 196.491408 258.532357 
L 196.649372 261.268653 
L 196.688863 262.490001 
L 196.767845 261.870757 
L 196.807336 261.856599 
L 196.846826 258.757401 
L 196.886317 262.490746 
L 197.083772 290.774 
L 197.123263 291.408147 
L 197.202244 285.835701 
L 197.360208 265.535546 
L 197.399699 266.411876 
L 197.43919 267.090734 
L 197.557662 261.203823 
L 197.636644 261.626339 
L 197.676135 263.614475 
L 197.755117 262.243347 
L 197.794608 259.138187 
L 197.834098 263.283616 
L 198.031553 292.056453 
L 198.110535 289.9163 
L 198.307989 265.905154 
L 198.426462 266.905929 
L 198.623916 260.717221 
L 198.663407 260.785777 
L 198.742389 258.204479 
L 199.018825 292.786728 
L 199.097807 286.731406 
L 199.334752 263.320875 
L 199.453225 259.759666 
L 199.532206 255.208861 
L 199.611188 256.337061 
L 199.69017 255.829594 
L 199.729661 261.132285 
L 199.927115 292.095202 
L 199.966606 292.377624 
L 200.045588 286.725445 
L 200.361515 254.063521 
L 200.401006 254.181259 
L 200.519478 250.311547 
L 200.558969 250.902473 
L 200.716933 268.041581 
L 200.914387 292.301616 
L 200.993369 291.429012 
L 201.072351 286.466123 
L 201.309296 262.314139 
L 201.427769 268.519241 
L 201.585732 261.647949 
L 201.704205 278.708068 
L 201.901659 293.438014 
L 201.94115 293.329963 
L 201.980641 293.827742 
L 202.099114 283.581536 
L 202.257077 264.857433 
L 202.336059 267.505053 
L 202.37555 268.604936 
L 202.415041 267.402963 
L 202.454532 267.234553 
L 202.533514 261.456438 
L 202.573004 265.135385 
L 202.80995 291.85898 
L 202.888931 287.957225 
L 203.28384 237.125611 
L 203.402313 243.152616 
L 203.560276 263.123403 
L 203.757731 290.885777 
L 203.836713 286.264924 
L 204.310603 219.156374 
L 204.350094 219.856097 
L 204.508058 249.934486 
L 204.705512 286.339442 
L 204.745003 285.919161 
L 204.823985 276.63051 
L 205.218894 187.826085 
L 205.258384 185.649418 
L 205.376857 206.981646 
L 205.692784 283.065873 
L 205.732275 280.778174 
L 206.166675 210.691891 
L 206.245656 219.832997 
L 206.601074 288.12489 
L 206.680056 284.668007 
L 206.995983 226.372684 
L 207.114456 196.076702 
L 207.153947 196.679552 
L 207.588346 283.764105 
L 207.627837 282.627708 
L 207.706819 274.767564 
L 208.062237 195.745098 
L 208.101728 200.188598 
L 208.299182 230.200666 
L 208.536128 273.276461 
L 208.575619 274.424036 
L 208.615109 273.551432 
L 208.773073 227.430092 
L 209.049509 167.494632 
L 209.207473 198.59168 
L 209.444418 277.728903 
L 209.483909 278.912247 
L 209.5234 278.293004 
L 209.839327 241.811294 
L 209.878818 242.18761 
L 209.957799 241.920836 
L 210.194745 265.432711 
L 210.392199 289.592892 
L 210.510672 278.371247 
L 210.747617 243.000599 
L 210.945071 207.81252 
L 210.984562 210.265648 
L 211.33998 278.294494 
L 211.418962 275.283227 
L 211.537435 242.715941 
L 211.853362 133.963085 
L 211.932344 146.906837 
L 212.248271 263.623417 
L 212.327252 268.713733 
L 212.366743 267.24126 
L 212.722161 190.64435 
L 212.801143 179.506911 
L 212.840634 183.733564 
L 213.235543 284.233567 
L 213.275034 284.107632 
L 213.354015 277.892097 
L 213.55147 250.947929 
L 213.590961 250.310802 
L 213.630452 245.660142 
L 213.709433 248.09166 
L 213.946379 263.533251 
L 214.183324 291.96107 
L 214.301797 289.383497 
L 214.499251 267.724881 
L 214.538742 268.622076 
L 214.696705 272.563325 
L 214.854669 268.511789 
L 214.933651 275.413633 
L 215.131105 292.527405 
L 215.170596 292.721897 
L 215.249578 291.081014 
L 215.565505 268.628037 
L 215.604996 269.879937 
L 215.644487 269.868759 
L 215.80245 266.730812 
L 215.881432 274.310024 
L 216.078886 290.338071 
L 216.118377 290.159973 
L 216.23685 285.115859 
L 216.434304 271.484307 
L 216.473795 272.25035 
L 216.552777 277.439029 
L 216.592268 274.027601 
L 216.750231 262.766462 
L 216.829213 271.810695 
L 217.026667 292.202508 
L 217.105649 287.661389 
L 217.461067 248.154255 
L 217.57954 238.071243 
L 217.619031 238.179294 
L 217.776994 256.114998 
L 217.974449 287.16361 
L 218.05343 283.749947 
L 218.448339 225.696807 
L 218.527321 230.690994 
L 218.92223 286.389369 
L 218.961721 285.618854 
L 219.040702 275.60887 
L 219.238157 241.171186 
L 219.514593 230.190234 
L 219.554084 232.575551 
L 219.633066 239.765779 
L 219.870011 278.921934 
L 219.909502 278.144713 
L 219.988484 267.543057 
L 220.225429 218.340404 
L 220.26492 217.494626 
L 220.343902 200.962839 
L 220.383392 212.016073 
L 220.699319 268.499866 
L 220.857283 282.265551 
L 220.896774 282.899698 
L 220.975756 272.030523 
L 221.370664 151.743791 
L 221.410155 156.977926 
L 221.844555 270.103491 
L 221.884046 269.543862 
L 222.002519 228.54488 
L 222.278955 133.185118 
L 222.318446 132.217131 
L 222.357937 134.337909 
L 222.752845 251.642436 
L 222.831827 243.603449 
L 223.108263 103.540423 
L 223.187245 111.706835 
L 223.463681 189.107792 
L 223.661136 245.128084 
L 223.700627 246.581928 
L 223.779608 234.619576 
L 224.056044 103.511361 
L 224.095535 116.047501 
L 224.29299 192.753951 
L 224.371972 204.338498 
L 224.608917 261.329758 
L 224.648408 261.878954 
L 224.72739 248.593165 
L 225.122298 98.197492 
L 225.161789 98.346528 
L 225.319753 152.168543 
L 225.556698 248.231753 
L 225.596189 251.058216 
L 225.63568 249.458317 
L 226.07008 151.450936 
L 226.149061 165.560893 
L 226.464988 275.448657 
L 226.54397 277.842916 
L 226.622952 268.730872 
L 226.859897 232.593435 
L 226.97837 223.542496 
L 227.017861 224.353995 
L 227.45226 279.681271 
L 227.570733 276.476258 
L 227.768187 250.573104 
L 227.807678 251.072374 
L 228.005133 256.613522 
L 228.084115 254.980091 
L 228.123605 255.567292 
L 228.163096 255.968943 
L 228.439532 287.746339 
L 228.479023 288.156188 
L 228.518514 287.925927 
L 228.676478 262.892397 
L 228.834441 248.855468 
L 228.873932 249.783215 
L 228.913423 249.600646 
L 229.071387 246.817404 
L 229.110877 248.390476 
L 229.347823 281.375807 
L 229.426805 276.434528 
L 229.742732 230.805752 
L 229.782222 232.375843 
L 229.940186 220.777883 
L 229.979677 224.12597 
L 230.058659 232.650814 
L 230.295604 277.286267 
L 230.335095 276.740797 
L 230.414077 266.057171 
L 230.769495 182.598657 
L 230.887967 195.697407 
L 231.243385 280.319889 
L 231.282876 280.328086 
L 231.361858 271.696683 
L 231.638294 222.152738 
L 231.756767 202.05527 
L 231.796257 202.890616 
L 231.993712 249.333127 
L 232.191166 286.238843 
L 232.270148 283.562907 
L 232.744039 205.493525 
L 232.78353 208.984686 
L 233.138947 284.722405 
L 233.178438 284.145636 
L 233.25742 276.083549 
L 233.652329 179.21033 
L 233.810292 206.404878 
L 233.928765 238.690486 
L 234.12622 268.867239 
L 234.16571 270.395601 
L 234.205201 269.215983 
L 234.363165 211.375219 
L 234.560619 151.036617 
L 234.679092 190.297097 
L 234.916037 257.98167 
L 235.113492 280.263256 
L 235.152982 279.898118 
L 235.310946 240.196492 
L 235.547891 160.18741 
L 235.626873 162.353644 
L 235.784837 201.769122 
L 235.982291 253.212527 
L 236.021782 254.64476 
L 236.061273 252.569438 
L 236.495673 110.572673 
L 236.614145 132.281962 
L 236.969563 251.404724 
L 237.048545 240.903667 
L 237.167018 207.352 
L 237.206508 208.703009 
L 237.324981 219.610188 
L 237.601417 245.257745 
L 237.640908 247.891207 
L 237.877853 287.410264 
L 237.917344 286.742584 
L 237.996326 277.75722 
L 238.233271 244.587085 
L 238.430726 221.303979 
L 238.470217 223.010438 
L 238.825635 286.327519 
L 238.904616 283.369905 
L 239.378507 204.431645 
L 239.417998 209.780537 
L 239.773416 284.041311 
L 239.852398 280.203642 
L 240.207815 206.70742 
L 240.286797 186.392361 
L 240.326288 188.408069 
L 240.760688 273.10507 
L 240.83967 268.733852 
L 240.958142 238.062301 
L 241.195088 187.635319 
L 241.234578 187.604022 
L 241.392542 203.318348 
L 241.511015 230.134346 
L 241.708469 259.531642 
L 241.74796 259.616592 
L 241.787451 259.019704 
L 241.905923 227.124569 
L 242.22185 133.606889 
L 242.300832 144.137008 
L 242.458796 197.192235 
L 242.65625 239.668161 
L 242.695741 240.785183 
L 242.814214 193.64593 
L 243.130141 74.022408 
L 243.209123 85.074152 
L 243.643522 225.031362 
L 243.683013 217.51102 
L 244.077922 59.70082 
L 244.117413 65.313505 
L 244.275376 115.719622 
L 244.551813 215.586969 
L 244.591303 218.079591 
L 244.670285 193.762178 
L 244.986212 54.082173 
L 245.025703 53.568 
L 245.144176 87.4468 
L 245.499594 236.729176 
L 245.539085 236.336467 
L 245.657557 200.807096 
L 245.77603 158.335641 
L 245.815521 169.625843 
L 245.933993 183.878874 
L 245.973484 182.108329 
L 246.407884 262.978838 
L 246.486866 257.04051 
L 246.960756 185.204547 
L 247.000247 194.941795 
L 247.316174 277.936808 
L 247.395156 281.205907 
L 247.434647 280.465199 
L 247.513629 275.725118 
L 247.711083 255.676833 
L 247.750574 256.03899 
L 247.869047 258.685119 
L 247.948028 254.85043 
L 248.02701 255.634358 
L 248.105992 264.061583 
L 248.303446 285.466093 
L 248.342937 285.857312 
L 248.382428 285.647916 
L 248.421919 285.01675 
L 248.619373 259.732095 
L 248.89581 220.272652 
L 248.935301 227.536653 
L 249.290718 279.331037 
L 249.330209 279.098542 
L 249.409191 270.338222 
L 249.8041 173.489594 
L 249.883082 184.005554 
L 250.199009 263.928941 
L 250.277991 260.490687 
L 250.396463 219.794247 
L 250.71239 88.795574 
L 250.751881 91.928304 
L 250.949336 211.298466 
L 251.14679 259.004055 
L 251.186281 260.407227 
L 251.225772 258.483175 
L 251.304753 234.76116 
L 251.660171 86.823086 
L 251.699662 89.609309 
L 251.857626 146.308459 
L 252.094571 238.428929 
L 252.134062 241.630961 
L 252.173553 241.26955 
L 252.252535 222.859167 
L 252.449989 156.148542 
L 252.48948 160.665815 
L 252.647443 196.669865 
L 252.805407 216.642142 
L 253.042352 263.326091 
L 253.081843 262.557812 
L 253.279298 221.633348 
L 253.437261 184.840154 
L 253.595225 136.805196 
L 254.069115 264.626428 
L 254.148097 256.397421 
L 254.424533 207.640384 
L 254.543006 184.201536 
L 254.582497 188.507923 
L 255.016896 270.243584 
L 255.056387 268.611643 
L 255.530278 206.876576 
L 255.60926 213.911807 
L 255.648751 216.294888 
L 255.885696 258.399715 
L 255.925187 257.828163 
L 256.004168 247.026799 
L 256.399077 133.730589 
L 256.478059 156.100106 
L 256.793986 258.509257 
L 256.872968 262.775404 
L 256.95195 251.231097 
L 257.188895 212.577938 
L 257.267877 209.746259 
L 257.307368 210.518264 
L 257.42584 216.452866 
L 257.544313 225.134197 
L 257.781258 268.175714 
L 257.820749 267.289696 
L 257.939222 240.857466 
L 258.255149 127.900311 
L 258.334131 130.305003 
L 258.531585 193.955924 
L 258.76853 258.433994 
L 258.847512 249.382309 
L 259.242421 105.664927 
L 259.281912 112.549632 
L 259.439875 162.448282 
L 259.676821 246.160902 
L 259.716311 247.710873 
L 259.755802 245.123613 
L 259.834784 222.004447 
L 260.150711 87.195675 
L 260.190202 87.202382 
L 260.269184 119.215255 
L 260.624602 243.94325 
L 260.703584 249.076041 
L 260.743074 247.539482 
L 260.901038 180.843016 
L 261.059001 121.572255 
L 261.256456 183.376623 
L 261.651365 257.244689 
L 261.690856 256.183554 
L 261.848819 225.125255 
L 262.085764 169.526734 
L 262.125255 172.704921 
L 262.559655 258.850548 
L 262.599146 255.74837 
L 263.073036 165.7144 
L 263.152018 179.559073 
L 263.507436 265.243436 
L 263.546927 262.060033 
L 263.704891 212.817885 
L 263.981327 130.924991 
L 264.020818 134.433292 
L 264.218272 199.824951 
L 264.455217 258.48094 
L 264.494708 257.156758 
L 264.613181 225.110351 
L 264.929108 157.701494 
L 264.968599 161.669571 
L 265.126562 205.740179 
L 265.363508 271.39414 
L 265.402999 272.262273 
L 265.48198 264.592895 
L 265.876889 177.724444 
L 265.955871 186.747811 
L 266.311289 275.038809 
L 266.35078 275.572356 
L 266.429761 267.487914 
L 266.82467 175.609627 
L 267.061616 232.200726 
L 267.298561 277.558257 
L 267.377543 275.940475 
L 267.535506 237.495965 
L 267.772451 181.115006 
L 268.048888 240.474444 
L 268.246342 268.892575 
L 268.285833 268.999881 
L 268.325324 268.532654 
L 268.562269 230.46595 
L 268.799214 174.304074 
L 268.838705 179.585155 
L 268.996669 225.023911 
L 269.194123 257.991358 
L 269.273105 248.534296 
L 269.668014 122.070779 
L 269.707505 127.587336 
L 269.904959 204.834787 
L 270.102414 263.357389 
L 270.141904 264.59215 
L 270.220886 256.02185 
L 270.615795 108.998856 
L 270.694777 124.503042 
L 270.892231 223.409854 
L 271.089686 261.469106 
L 271.168667 252.664821 
L 271.563576 165.280706 
L 271.603067 166.238261 
L 271.761031 208.065881 
L 271.997976 270.693672 
L 272.037467 270.903067 
L 272.116449 260.785032 
L 272.392885 199.402435 
L 272.432376 197.919529 
L 272.471867 199.538057 
L 272.550848 203.058281 
L 272.708812 224.384547 
L 272.985248 268.020716 
L 273.06423 260.226148 
L 273.419648 173.105081 
L 273.459139 173.886029 
L 273.53812 191.943942 
L 273.854047 279.088109 
L 273.97252 283.031594 
L 274.012011 281.981638 
L 274.446411 220.904563 
L 274.485902 224.163975 
L 274.88081 283.735043 
L 274.959792 284.649377 
L 275.078265 267.180155 
L 275.236228 239.890969 
L 275.31521 241.537814 
L 275.394192 242.273305 
L 275.473174 239.610782 
L 275.512664 240.743453 
L 275.828592 280.068764 
L 275.868082 277.539628 
L 276.2235 208.636688 
L 276.341973 193.514778 
L 276.460446 217.484194 
L 276.736882 281.747652 
L 276.776373 281.550179 
L 276.855354 273.278697 
L 277.171282 220.470124 
L 277.289754 212.071216 
L 277.329245 217.061677 
L 277.684663 278.740111 
L 277.763645 275.14984 
L 278.198044 215.630189 
L 278.237535 216.306811 
L 278.43499 241.172676 
L 278.632444 274.945661 
L 278.671935 274.018659 
L 278.790408 252.989719 
L 279.066844 187.600296 
L 279.185317 177.225919 
L 279.264298 192.433524 
L 279.619716 271.970908 
L 279.698698 264.419268 
L 280.093607 134.632255 
L 280.172589 145.911278 
L 280.567497 263.712839 
L 280.606988 264.681571 
L 280.646479 263.909566 
L 280.764952 237.55856 
L 281.001897 166.766592 
L 281.041388 166.108599 
L 281.278333 215.864175 
L 281.515279 262.61221 
L 281.554769 265.050435 
L 281.633751 263.600317 
L 282.02866 193.118343 
L 282.068151 200.129729 
L 282.384078 263.814183 
L 282.423569 265.57355 
L 282.46306 264.584698 
L 282.542042 253.393606 
L 282.897459 155.784895 
L 282.93695 157.337102 
L 283.173896 218.97008 
L 283.37135 263.153955 
L 283.410841 262.971386 
L 283.529314 238.981851 
L 283.884732 152.551565 
L 283.924222 151.311588 
L 284.042695 177.592547 
L 284.319131 255.152972 
L 284.358622 255.612002 
L 284.437604 244.104209 
L 284.674549 141.593714 
L 284.832513 89.598131 
L 284.872004 91.70028 
L 285.069458 191.753176 
L 285.266912 249.041762 
L 285.306403 250.088738 
L 285.424876 226.839911 
L 285.780294 74.961333 
L 285.977748 170.242105 
L 286.214694 241.532598 
L 286.254185 243.748759 
L 286.293675 241.865692 
L 286.372657 225.484431 
L 286.728075 76.282534 
L 286.767566 81.539769 
L 286.96502 165.98639 
L 287.201966 235.041347 
L 287.241457 237.002657 
L 287.280947 236.838718 
L 287.438911 197.258556 
L 287.636365 140.3284 
L 287.675856 134.898284 
L 287.715347 137.805971 
L 287.912802 209.512273 
L 288.149747 267.648872 
L 288.228729 270.861337 
L 288.26822 268.531909 
L 288.663128 185.755234 
L 288.702619 194.5856 
L 289.058037 271.809205 
L 289.097528 271.81144 
L 289.17651 260.987721 
L 289.531928 171.588643 
L 289.61091 177.106691 
L 289.887346 248.628934 
L 290.005818 263.503444 
L 290.045309 262.355869 
L 290.163782 237.828315 
L 290.479709 168.851602 
L 290.5192 168.367981 
L 290.677163 191.136913 
L 290.9536 256.08072 
L 290.99309 255.56282 
L 291.111563 230.233454 
L 291.387999 159.630017 
L 291.466981 149.925556 
L 291.506472 152.929371 
L 291.940872 239.927483 
L 292.019853 229.069485 
L 292.375271 152.436062 
L 292.414762 148.964275 
L 292.454253 149.02389 
L 292.849162 256.304273 
L 292.928144 252.145431 
L 293.046616 219.99172 
L 293.244071 185.241805 
L 293.362543 177.865282 
L 293.402034 178.294505 
L 293.63898 229.618682 
L 293.836434 264.008675 
L 293.915416 261.557037 
L 294.073379 219.233873 
L 294.231343 190.783699 
L 294.270834 190.47594 
L 294.349815 186.711298 
L 294.389306 187.899858 
L 294.507779 205.267735 
L 294.744724 253.572448 
L 294.823706 256.071032 
L 294.863197 254.281113 
L 294.942179 244.276345 
L 295.139633 224.187075 
L 295.179124 224.20943 
L 295.258106 227.295215 
L 295.297597 224.970258 
L 295.337088 224.616298 
L 295.416069 230.251339 
L 295.692505 266.728577 
L 295.731996 265.026589 
L 295.850469 239.209876 
L 296.205887 155.70218 
L 296.245378 158.260378 
L 296.640287 264.51018 
L 296.719268 260.021224 
L 296.837741 220.672813 
L 297.153668 114.425992 
L 297.23265 131.737236 
L 297.627559 262.457958 
L 297.70654 254.079915 
L 297.903995 168.244281 
L 298.101449 97.842042 
L 298.14094 101.467336 
L 298.57534 247.062568 
L 298.654322 238.07944 
L 298.812285 163.613741 
L 299.04923 84.388587 
L 299.523121 239.814216 
L 299.562612 236.649442 
L 299.641594 219.730907 
L 299.957521 94.739863 
L 300.39192 239.463982 
L 300.470902 244.148175 
L 300.510393 243.402251 
L 300.589375 239.876811 
L 300.82632 216.543033 
L 301.102756 229.75654 
L 301.418683 272.669141 
L 301.497665 270.576679 
L 301.576647 261.045099 
L 301.813592 241.037799 
L 302.011047 221.155689 
L 302.050538 221.930674 
L 302.326974 262.299235 
L 302.405955 256.256582 
L 302.682392 174.251166 
L 302.840355 127.89584 
L 302.879846 134.641197 
L 303.195773 247.453042 
L 303.314246 259.424336 
L 303.353737 256.012163 
L 303.551191 204.51585 
L 303.709155 158.576334 
L 303.748645 159.503336 
L 304.025082 222.903132 
L 304.222536 262.375243 
L 304.262027 261.717251 
L 304.3805 238.687506 
L 304.577954 214.521363 
L 304.617445 214.661457 
L 304.893881 231.179831 
L 305.209808 279.918983 
L 305.249299 277.760946 
L 305.683699 211.677017 
L 305.72319 215.686078 
L 306.118098 283.882588 
L 306.19708 280.530775 
L 306.591989 229.747598 
L 306.63148 229.165613 
L 306.749953 237.645001 
L 306.868425 257.348268 
L 307.06588 285.385614 
L 307.105371 285.961637 
L 307.184352 282.456316 
L 307.460788 246.688488 
L 307.618752 222.535759 
L 307.658243 228.304932 
L 308.092643 284.261884 
L 308.132133 282.496556 
L 308.250606 268.294197 
L 308.40857 251.402488 
L 308.448061 251.501597 
L 308.606024 247.013386 
L 308.645515 243.610901 
L 308.685006 245.189189 
L 308.803478 261.644968 
L 308.961442 276.444215 
L 309.000933 276.694595 
L 309.119406 268.648902 
L 309.474823 196.344967 
L 309.553805 207.742474 
L 309.909223 281.849741 
L 309.948714 281.63513 
L 310.027696 272.180303 
L 310.422605 190.997565 
L 310.462096 191.989398 
L 310.857004 278.436078 
L 310.896495 277.856329 
L 311.014968 256.469703 
L 311.330895 180.110506 
L 311.370386 176.006807 
L 311.409877 178.906297 
L 311.607331 221.763754 
L 311.804786 267.571374 
L 311.844276 268.253212 
L 311.923258 253.170052 
L 312.120713 218.586313 
L 312.160203 218.478262 
L 312.199694 216.86644 
L 312.239185 218.307616 
L 312.476131 225.484431 
L 312.792058 279.914512 
L 312.871039 267.151093 
L 313.107985 235.724676 
L 313.265948 221.695198 
L 313.305439 224.533583 
L 313.700348 287.933379 
L 313.739839 287.22546 
L 313.858311 279.175295 
L 314.174238 241.176402 
L 314.25322 235.852846 
L 314.292711 240.095893 
L 314.411184 252.439032 
L 314.68762 285.756713 
L 314.766602 283.103132 
L 314.845583 274.199737 
L 315.043038 234.355782 
L 315.201001 205.323624 
L 315.240492 206.902657 
L 315.279983 207.422047 
L 315.398456 231.828137 
L 315.59591 264.710633 
L 315.674892 260.752244 
L 316.109292 155.002457 
L 316.346237 225.919615 
L 316.543691 271.14525 
L 316.583182 270.783839 
L 316.701655 245.846437 
L 317.017582 175.864478 
L 317.057073 180.382496 
L 317.254527 215.992346 
L 317.491473 268.940267 
L 317.530963 268.798683 
L 317.609945 251.997886 
L 318.004854 142.768115 
L 318.202309 195.113186 
L 318.439254 263.470656 
L 318.478745 263.838774 
L 318.636708 233.202246 
L 318.873654 192.943972 
L 318.913144 194.247289 
L 319.110599 210.262668 
L 319.387035 266.474471 
L 319.426526 265.752393 
L 319.505508 250.715434 
L 319.702962 218.270357 
L 319.821435 215.379809 
L 319.979398 218.579606 
L 320.018889 217.753948 
L 320.137362 237.53844 
L 320.374307 272.524576 
L 320.453289 267.593729 
L 320.571761 242.438735 
L 320.848198 179.120163 
L 320.887689 181.75586 
L 321.322088 278.149184 
L 321.361579 279.687978 
L 321.40107 278.994962 
L 321.440561 277.707293 
L 321.795979 229.867572 
L 321.83547 229.954758 
L 322.230379 286.76941 
L 322.269869 285.756713 
L 322.348851 273.249635 
L 322.625287 229.86161 
L 322.74376 220.416471 
L 322.783251 220.991749 
L 322.941214 243.745778 
L 323.17816 285.37071 
L 323.257141 280.410801 
L 323.612559 224.709445 
L 323.691541 217.373907 
L 323.731032 219.504373 
L 323.849505 225.400226 
L 324.125941 272.778682 
L 324.165432 270.014814 
L 324.283904 240.698743 
L 324.52085 195.567745 
L 324.599831 186.102487 
L 324.639322 186.410991 
L 324.836777 207.928768 
L 325.073722 262.259741 
L 325.113213 260.665058 
L 325.271176 217.967069 
L 325.508122 192.417875 
L 325.547613 193.140699 
L 325.587104 191.653322 
L 325.626594 194.23015 
L 325.705576 203.51284 
L 326.060994 280.96894 
L 326.100485 277.157351 
L 326.376921 239.826139 
L 326.534885 223.215362 
L 326.574376 226.69162 
L 327.008775 289.124175 
L 327.087757 283.580791 
L 327.482666 246.783126 
L 327.719611 265.109304 
L 327.917066 289.241168 
L 327.956556 289.377535 
L 328.075029 284.767115 
L 328.311974 268.645921 
L 328.54892 253.234137 
L 328.588411 256.829624 
L 328.864847 290.635397 
L 328.943829 284.961607 
L 329.180774 249.67889 
L 329.378228 227.631291 
L 329.496701 230.029275 
L 329.654664 267.376882 
L 329.812628 285.337922 
L 329.852119 284.269336 
L 330.010082 252.708041 
L 330.089064 237.524282 
L 330.168046 237.594329 
L 330.247028 241.598919 
L 330.286519 239.787389 
L 330.444482 234.22016 
L 330.760409 290.008702 
L 330.839391 285.01675 
L 331.036845 257.827418 
L 331.076336 257.632181 
L 331.194809 253.117889 
L 331.392263 245.682497 
L 331.550227 276.58878 
L 331.70819 290.079494 
L 331.787172 284.415391 
L 331.984627 256.086681 
L 332.024117 256.503236 
L 332.221572 252.588067 
L 332.261063 252.195358 
L 332.340044 249.063373 
L 332.655972 291.29488 
L 332.695462 289.81272 
L 333.05088 258.349043 
L 333.090371 258.960835 
L 333.287826 253.813886 
L 333.445789 279.160391 
L 333.603753 291.975228 
L 333.643244 291.828428 
L 333.722225 286.220959 
L 333.959171 272.391189 
L 333.998662 272.374795 
L 334.235607 257.98018 
L 334.275098 260.873708 
L 334.591025 292.168974 
L 334.630516 291.446151 
L 334.906952 273.072282 
L 335.183388 244.814364 
L 335.301861 261.973592 
L 335.499315 282.924289 
L 335.538806 282.311007 
L 335.617788 266.130944 
L 335.775751 236.963162 
L 335.815242 237.70238 
L 335.973206 241.083255 
L 336.091678 239.245644 
L 336.17066 247.599842 
L 336.447096 289.328354 
L 336.486587 288.321617 
L 336.565569 272.934424 
L 336.723532 248.526844 
L 336.881496 249.532835 
L 336.920987 249.663987 
L 336.999969 247.061823 
L 337.039459 243.448452 
L 337.07895 243.828493 
L 337.197423 264.633134 
L 337.394877 288.122655 
L 337.434368 287.20683 
L 337.51335 272.563325 
L 337.671314 248.828641 
L 337.750295 249.279474 
L 338.026732 240.471463 
L 338.145204 263.212824 
L 338.342659 288.794061 
L 338.42164 283.767086 
L 338.658586 247.482849 
L 338.85604 234.296913 
L 338.935022 235.029424 
L 338.974513 236.354351 
L 339.29044 289.3753 
L 339.369422 284.657574 
L 339.645858 243.053507 
L 339.76433 237.259743 
L 339.803821 237.815647 
L 340.040767 259.997378 
L 340.238221 288.063786 
L 340.277712 288.880501 
L 340.317203 287.748575 
L 340.672621 266.3463 
L 340.712112 266.82694 
L 340.751602 266.083997 
L 340.870075 257.964531 
L 340.909566 260.748518 
L 341.225493 291.343317 
L 341.264984 290.802317 
L 341.817856 257.8535 
L 341.97582 279.489015 
L 342.133783 290.113772 
L 342.212765 285.284269 
L 342.41022 254.682765 
L 342.44971 254.921967 
L 342.489201 254.256522 
L 342.647165 243.98498 
L 342.686656 244.398555 
L 342.765637 240.87535 
L 343.081565 290.16817 
L 343.121055 288.841752 
L 343.239528 265.481148 
L 343.436982 250.755673 
L 343.673928 241.072822 
L 343.713419 241.888048 
L 343.831891 265.256849 
L 344.029346 289.282898 
L 344.108327 283.796148 
L 344.345273 246.832308 
L 344.424255 245.872518 
L 344.463745 246.626639 
L 344.503236 246.573731 
L 344.542727 246.817404 
L 344.582218 246.017082 
L 344.621709 239.859672 
L 344.6612 240.466992 
L 344.819163 272.697457 
L 344.977127 288.20835 
L 345.016618 286.988493 
L 345.490508 229.328808 
L 345.56949 231.756599 
L 345.648472 241.547501 
L 345.924908 288.187485 
L 345.964399 287.241854 
L 346.43829 221.3703 
L 346.517271 225.681158 
L 346.714726 264.130139 
L 346.91218 284.094964 
L 346.991162 278.816119 
L 347.386071 244.799461 
L 347.465052 245.617667 
L 347.544034 253.560526 
L 347.859961 293.362751 
L 347.899452 292.989416 
L 348.175888 280.453276 
L 348.215379 281.0524 
L 348.25487 282.121731 
L 348.373343 271.026022 
L 348.452325 263.350682 
L 348.491815 265.896212 
L 348.768252 293.408207 
L 348.807742 291.740497 
L 348.926215 267.235298 
L 349.005197 261.870757 
L 349.044688 262.569735 
L 349.084179 262.402815 
L 349.12367 259.609885 
L 349.16316 260.513042 
L 349.242142 264.042953 
L 349.281633 262.125608 
L 349.400106 251.501597 
L 349.439597 256.000985 
L 349.716033 291.50502 
L 349.755524 289.995288 
L 349.952978 260.744793 
L 350.03196 263.907331 
L 350.071451 264.104058 
L 350.189923 261.58759 
L 350.308396 250.689352 
L 350.347887 251.621571 
L 350.663814 291.725593 
L 350.703305 290.030312 
L 351.098214 253.831025 
L 351.256177 244.452953 
L 351.295668 246.602048 
L 351.611595 292.394764 
L 351.690577 286.706815 
L 351.888031 258.475724 
L 352.045995 251.558976 
L 352.203958 244.239831 
L 352.322431 259.815555 
L 352.559376 291.867922 
L 352.638358 285.464603 
L 352.835812 256.357926 
L 352.875303 256.321412 
L 352.914794 253.130557 
L 352.954285 254.983072 
L 352.993776 256.196222 
L 353.072758 255.506187 
L 353.112249 255.537484 
L 353.15174 252.128292 
L 353.19123 254.515099 
L 353.507158 293.133981 
L 353.586139 291.174161 
L 353.783594 273.589436 
L 353.823085 275.924826 
L 353.941557 280.387701 
L 354.06003 270.633313 
L 354.099521 264.800055 
L 354.178503 268.057975 
L 354.454939 293.390322 
L 354.53392 290.972963 
L 354.889338 277.441264 
L 354.928829 277.693135 
L 355.007811 269.666071 
L 355.086793 263.043669 
L 355.126284 265.101107 
L 355.363229 293.288233 
L 355.442211 291.154041 
L 355.560683 264.162182 
L 355.718647 252.786285 
L 355.797629 254.85341 
L 355.87661 254.270681 
L 355.995083 242.726374 
L 356.034574 245.244332 
L 356.192538 274.864437 
L 356.350501 291.229304 
L 356.389992 290.485616 
L 356.508465 263.650244 
L 356.666428 248.890491 
L 356.784901 253.930879 
L 356.824392 256.033773 
L 356.863883 254.839997 
L 356.942864 245.104239 
L 356.982355 248.21685 
L 357.140319 277.446481 
L 357.298282 290.437179 
L 357.377264 283.637425 
L 357.495737 259.020449 
L 357.574718 260.987721 
L 357.6537 258.444426 
L 357.693191 258.89675 
L 357.772173 259.759666 
L 357.851155 256.411579 
L 357.890645 249.661751 
L 357.930136 251.781039 
L 358.246063 291.787443 
L 358.285554 289.712866 
L 358.483009 260.906496 
L 358.56199 263.682287 
L 358.601481 264.885005 
L 358.640972 264.401384 
L 358.719954 261.885661 
L 358.838427 250.786226 
L 358.917408 256.611287 
L 359.193845 291.828428 
L 359.233335 290.323167 
L 359.43079 258.470507 
L 359.588753 258.868433 
L 359.667735 260.115862 
L 359.786208 251.433786 
L 359.825699 254.590362 
L 360.141626 291.409637 
L 360.181117 290.833614 
L 360.260098 285.931084 
L 360.418062 268.376167 
L 360.457553 272.199678 
L 360.497044 274.649825 
L 360.536535 273.077499 
L 360.694498 265.646577 
L 360.733989 261.263437 
L 360.77348 262.598052 
L 360.891953 274.187069 
L 361.128898 293.324746 
L 361.286861 284.983962 
L 361.642279 269.859817 
L 361.721261 263.478108 
L 361.760752 265.784435 
L 362.037188 291.952127 
L 362.076679 290.699482 
L 362.155661 275.9211 
L 362.274133 257.531582 
L 362.313624 260.303647 
L 362.432097 264.658471 
L 362.471588 264.031775 
L 362.55057 261.361055 
L 362.669042 251.447944 
L 362.708533 255.304243 
L 362.984969 290.476674 
L 363.02446 288.678558 
L 363.300896 255.837791 
L 363.340387 257.840086 
L 363.419369 259.667264 
L 363.45886 258.916124 
L 363.537842 252.043342 
L 363.577333 246.144508 
L 363.616823 249.07306 
L 363.93275 287.913259 
L 363.972241 285.801423 
L 364.130205 255.796061 
L 364.248678 262.004144 
L 364.288168 262.791053 
L 364.36715 262.197891 
L 364.406641 262.167338 
L 364.525114 247.306987 
L 364.604095 252.788521 
L 364.841041 285.614383 
L 364.920023 283.301349 
L 365.077986 254.507648 
L 365.196459 259.723153 
L 365.275441 262.083133 
L 365.314931 260.192615 
L 365.354422 261.024234 
L 365.433404 254.884708 
L 365.472895 248.125193 
L 365.512386 250.364454 
L 365.630858 266.806821 
L 365.788822 284.400487 
L 365.828313 284.378877 
L 365.907295 278.076902 
L 366.065258 259.693345 
L 366.14424 262.838744 
L 366.262713 265.59665 
L 366.302203 265.019882 
L 366.420676 251.997141 
L 366.499658 256.85347 
L 366.776094 284.544307 
L 366.855076 281.580732 
L 366.973548 270.063996 
L 367.013039 270.698888 
L 367.210494 280.954036 
L 367.289476 276.136457 
L 367.407948 261.954963 
L 367.447439 263.775434 
L 367.526421 270.590837 
L 367.723875 285.635994 
L 367.763366 286.034664 
L 367.802857 285.438521 
L 367.960821 278.404035 
L 368.000311 280.307221 
L 368.079293 283.231302 
L 368.118784 282.459297 
L 368.276748 269.572178 
L 368.355729 257.97869 
L 368.39522 259.945216 
L 368.671656 288.099554 
L 368.750638 285.381888 
L 368.948093 261.371488 
L 369.027074 262.774659 
L 369.066565 262.929656 
L 369.224529 252.064952 
L 369.26402 245.821846 
L 369.343001 250.843604 
L 369.619438 289.18826 
L 369.698419 286.124831 
L 369.895874 261.348387 
L 369.974856 262.125608 
L 370.053837 260.179202 
L 370.17231 252.574654 
L 370.211801 245.403055 
L 370.251292 246.789088 
L 370.60671 291.891023 
L 370.646201 289.746399 
L 371.001618 260.867002 
L 371.0806 258.391518 
L 371.159582 246.745867 
L 371.238564 251.810101 
L 371.554491 288.510893 
L 371.593982 285.900532 
L 371.870418 260.701572 
L 371.909909 261.241827 
L 372.067872 251.197564 
L 372.107363 244.751024 
L 372.146854 246.251069 
L 372.304818 269.901547 
L 372.502272 289.305998 
L 372.581254 282.392976 
L 372.778708 248.967245 
L 372.818199 249.57382 
L 372.85769 250.229577 
L 372.936672 258.052462 
L 372.976163 257.376585 
L 373.055144 247.347226 
L 373.094635 249.744466 
L 373.450053 289.718827 
L 373.489544 289.358161 
L 374.042416 258.742498 
L 374.081907 260.761932 
L 374.20038 272.438135 
L 374.397834 288.68601 
L 374.437325 288.683029 
L 374.713761 281.230498 
L 374.753252 281.752123 
L 374.990198 255.899641 
L 375.029688 258.331159 
L 375.306125 287.965422 
L 375.385106 285.280543 
L 375.661543 253.009839 
L 375.740524 253.97708 
L 375.780015 256.460761 
L 375.819506 254.708846 
L 375.898488 240.41632 
L 375.97747 245.155656 
L 376.253906 285.162805 
L 376.332888 282.056901 
L 376.490851 257.346778 
L 376.569833 260.099468 
L 376.609324 260.364751 
L 376.767287 256.086681 
L 376.846269 241.619038 
L 376.925251 245.672065 
L 377.201687 282.772272 
L 377.280669 280.012876 
L 377.557105 254.6619 
L 377.596596 260.165044 
L 377.675578 256.050167 
L 377.754559 248.197475 
L 377.79405 241.385052 
L 377.833541 243.300906 
L 378.030996 276.629765 
L 378.149468 287.440816 
L 378.188959 287.109957 
L 378.267941 280.047154 
L 378.425904 259.760412 
L 378.544377 260.553282 
L 378.66285 256.10382 
L 378.741831 242.791949 
L 378.820813 249.093925 
L 379.097249 288.961726 
L 379.176231 286.273121 
L 379.373686 258.81478 
L 379.452667 260.436289 
L 379.492158 260.820056 
L 379.610631 256.452564 
L 379.689613 243.767388 
L 379.729104 245.510361 
L 380.084521 283.030849 
L 380.124012 282.155264 
L 380.281976 269.288265 
L 380.360958 272.037974 
L 380.400449 271.739903 
L 380.47943 274.541029 
L 380.518921 272.95827 
L 380.558412 271.075949 
L 380.637394 254.255032 
L 380.716376 256.726789 
L 380.834848 269.282304 
L 381.032303 287.633072 
L 381.071794 287.343943 
L 381.269248 279.342215 
L 381.308739 281.100837 
L 381.387721 282.196249 
L 381.427211 281.40636 
L 381.545684 263.011626 
L 381.624666 256.402637 
L 381.664157 258.7112 
L 381.940593 290.411843 
L 382.019575 288.241138 
L 382.335502 254.151452 
L 382.374993 254.812426 
L 382.414484 255.1023 
L 382.453974 254.239383 
L 382.532956 239.217328 
L 382.611938 243.110886 
L 382.730411 262.596561 
L 382.888374 281.497272 
L 382.927865 281.232733 
L 383.006847 274.005246 
L 383.125319 253.041881 
L 383.16481 253.877226 
L 383.283283 256.14406 
L 383.401756 250.247461 
L 383.480737 234.440733 
L 383.559719 240.228535 
L 383.717683 267.292677 
L 383.875646 278.188679 
L 383.954628 271.634088 
L 384.073101 251.120066 
L 384.112591 251.936036 
L 384.231064 257.185819 
L 384.270555 256.783423 
L 384.349537 252.895826 
L 384.428519 238.621185 
L 384.5075 243.674986 
L 384.665464 269.300188 
L 384.823427 280.986824 
L 384.902409 277.507585 
L 385.020882 268.644431 
L 385.060373 269.016275 
L 385.099864 268.092254 
L 385.139354 263.641302 
L 385.218336 264.522103 
L 385.257827 264.8239 
L 385.297318 263.918508 
L 385.3763 255.807239 
L 385.415791 258.650095 
L 385.573754 271.216042 
L 385.771209 288.589136 
L 385.85019 284.422098 
L 386.008154 263.891682 
L 386.087136 264.32165 
L 386.126626 264.32165 
L 386.28459 251.914426 
L 386.324081 245.753289 
L 386.403063 249.944919 
L 386.561026 270.580405 
L 386.71899 282.906404 
L 386.758481 282.426509 
L 386.916444 269.652658 
L 386.995426 266.636175 
L 387.034917 269.072163 
L 387.113899 270.440311 
L 387.153389 269.302424 
L 387.232371 257.461536 
L 387.311353 248.508215 
L 387.350844 250.026143 
L 387.469316 261.745567 
L 387.666771 281.961518 
L 387.706262 282.287906 
L 387.824734 276.412918 
L 388.022189 260.545085 
L 388.06168 261.264927 
L 388.101171 262.372263 
L 388.140661 262.058542 
L 388.219643 246.38371 
L 388.298625 249.034311 
L 388.417098 265.550449 
L 388.575061 282.892246 
L 388.614552 282.799844 
L 388.693534 276.162538 
L 388.851497 252.275092 
L 388.890988 254.540435 
L 388.930479 251.088768 
L 388.96997 248.984384 
L 389.009461 249.407645 
L 389.048952 251.252707 
L 389.088443 248.271993 
L 389.167424 232.454832 
L 389.246406 236.685956 
L 389.40437 266.11753 
L 389.522842 277.376434 
L 389.562333 277.165548 
L 389.641315 269.864288 
L 389.759788 246.627384 
L 389.838769 247.25855 
L 389.87826 247.540228 
L 390.036224 244.583359 
L 390.115206 231.973446 
L 390.154697 233.395247 
L 390.31266 259.604669 
L 390.470624 281.579986 
L 390.510114 281.419028 
L 390.589096 273.725804 
L 390.74706 251.895797 
L 390.865532 259.048766 
L 390.905023 257.375095 
L 390.984005 255.464457 
L 391.062987 237.455725 
L 391.141969 242.77332 
L 391.299932 273.329369 
L 391.457896 285.276818 
L 391.536877 278.935348 
L 391.734332 253.833261 
L 391.773823 256.138844 
L 391.852804 254.542671 
L 391.892295 255.27071 
L 391.971277 245.886676 
L 392.010768 240.564611 
L 392.050259 242.790459 
L 392.208222 267.154074 
L 392.405677 289.013143 
L 392.484659 279.025514 
L 392.603131 257.472713 
L 392.642622 257.806553 
L 392.761095 260.44374 
L 392.879567 256.485352 
L 392.958549 240.135388 
L 392.99804 241.502045 
L 393.353458 282.012935 
L 393.43244 279.327311 
L 393.590403 267.581806 
L 393.748367 274.175892 
L 393.827349 270.252526 
L 393.90633 252.209517 
L 393.985312 254.218518 
L 394.103785 264.212109 
L 394.301239 284.044292 
L 394.34073 284.269336 
L 394.498694 276.929327 
L 394.577675 277.484485 
L 394.617166 277.500134 
L 394.656657 277.770633 
L 394.696148 277.509076 
L 394.814621 261.094281 
L 394.893602 249.945664 
L 394.933093 251.854067 
L 395.051566 268.217444 
L 395.209529 286.858832 
L 395.24902 286.965392 
L 395.328002 280.968195 
L 395.525457 249.82569 
L 395.564947 249.823455 
L 395.68342 256.331845 
L 395.722911 254.68649 
L 395.801893 239.194227 
L 395.880874 244.303917 
L 396.157311 285.262659 
L 396.236292 282.869891 
L 396.394256 252.311606 
L 396.512729 255.618709 
L 396.670692 251.230352 
L 396.749674 232.795378 
L 396.828656 237.813411 
L 396.947128 257.702973 
L 397.105092 281.071775 
L 397.144583 280.894422 
L 397.223564 274.069331 
L 397.421019 246.754064 
L 397.46051 247.030525 
L 397.578982 252.257208 
L 397.618473 249.897227 
L 397.697455 232.855738 
L 397.736946 234.463088 
L 397.894909 257.788669 
L 398.052873 279.13282 
L 398.131855 276.647649 
L 398.329309 249.123732 
L 398.447782 250.262365 
L 398.487273 250.946439 
L 398.487273 250.946439 
" clip-path="url(#pd8793e7111)" style="fill: none; stroke: #1f77b4; stroke-width: 1.5; stroke-linecap: square"/>
   </g>
   <g id="patch_3">
    <path d="M 57.6 307.584 
L 57.6 41.472 
" style="fill: none; stroke: #000000; stroke-width: 0.8; stroke-linejoin: miter; stroke-linecap: square"/>
   </g>
   <g id="patch_4">
    <path d="M 414.72 307.584 
L 414.72 41.472 
" style="fill: none; stroke: #000000; stroke-width: 0.8; stroke-linejoin: miter; stroke-linecap: square"/>
   </g>
   <g id="patch_5">
    <path d="M 57.6 307.584 
L 414.72 307.584 
" style="fill: none; stroke: #000000; stroke-width: 0.8; stroke-linejoin: miter; stroke-linecap: square"/>
   </g>
   <g id="patch_6">
    <path d="M 57.6 41.472 
L 414.72 41.472 
" style="fill: none; stroke: #000000; stroke-width: 0.8; stroke-linejoin: miter; stroke-linecap: square"/>
   </g>
  </g>
 </g>
 <defs>
  <clipPath id="pd8793e7111">
   <rect x="57.6" y="41.472" width="357.12" height="266.112"/>
  </clipPath>
 </defs>
</svg>
