<?xml version="1.0" encoding="utf-8" standalone="no"?>
<!DOCTYPE svg PUBLIC "-//W3C//DTD SVG 1.1//EN"
  "http://www.w3.org/Graphics/SVG/1.1/DTD/svg11.dtd">
<svg xmlns:xlink="http://www.w3.org/1999/xlink" width="460.8pt" height="345.6pt" viewBox="0 0 460.8 345.6" xmlns="http://www.w3.org/2000/svg" version="1.1">
 <metadata>
  <rdf:RDF xmlns:dc="http://purl.org/dc/elements/1.1/" xmlns:cc="http://creativecommons.org/ns#" xmlns:rdf="http://www.w3.org/1999/02/22-rdf-syntax-ns#">
   <cc:Work>
    <dc:type rdf:resource="http://purl.org/dc/dcmitype/StillImage"/>
    <dc:date>2023-02-20T10:34:29.861400</dc:date>
    <dc:format>image/svg+xml</dc:format>
    <dc:creator>
     <cc:Agent>
      <dc:title>Matplotlib v3.5.3, https://matplotlib.org/</dc:title>
     </cc:Agent>
    </dc:creator>
   </cc:Work>
  </rdf:RDF>
 </metadata>
 <defs>
  <style type="text/css">*{stroke-linejoin: round; stroke-linecap: butt}</style>
 </defs>
 <g id="figure_1">
  <g id="patch_1">
   <path d="M 0 345.6 
L 460.8 345.6 
L 460.8 0 
L 0 0 
z
" style="fill: #ffffff"/>
  </g>
  <g id="axes_1">
   <g id="patch_2">
    <path d="M 57.6 147.9168 
L 414.72 147.9168 
L 414.72 41.472 
L 57.6 41.472 
z
" style="fill: #ffffff"/>
   </g>
   <g id="matplotlib.axis_1">
    <g id="xtick_1">
     <g id="line2d_1">
      <defs>
       <path id="m64736de6cf" d="M 0 0 
L 0 3.5 
" style="stroke: #000000; stroke-width: 0.8"/>
      </defs>
      <g>
       <use xlink:href="#m64736de6cf" x="73.832727" y="147.9168" style="stroke: #000000; stroke-width: 0.8"/>
      </g>
     </g>
     <g id="text_1">
      <!-- 0 -->
      <g transform="translate(70.651477 162.515237)scale(0.1 -0.1)">
       <defs>
        <path id="DejaVuSans-30" d="M 2034 4250 
Q 1547 4250 1301 3770 
Q 1056 3291 1056 2328 
Q 1056 1369 1301 889 
Q 1547 409 2034 409 
Q 2525 409 2770 889 
Q 3016 1369 3016 2328 
Q 3016 3291 2770 3770 
Q 2525 4250 2034 4250 
z
M 2034 4750 
Q 2819 4750 3233 4129 
Q 3647 3509 3647 2328 
Q 3647 1150 3233 529 
Q 2819 -91 2034 -91 
Q 1250 -91 836 529 
Q 422 1150 422 2328 
Q 422 3509 836 4129 
Q 1250 4750 2034 4750 
z
" transform="scale(0.015625)"/>
       </defs>
       <use xlink:href="#DejaVuSans-30"/>
      </g>
     </g>
    </g>
    <g id="xtick_2">
     <g id="line2d_2">
      <g>
       <use xlink:href="#m64736de6cf" x="138.376374" y="147.9168" style="stroke: #000000; stroke-width: 0.8"/>
      </g>
     </g>
     <g id="text_2">
      <!-- 100 -->
      <g transform="translate(128.832624 162.515237)scale(0.1 -0.1)">
       <defs>
        <path id="DejaVuSans-31" d="M 794 531 
L 1825 531 
L 1825 4091 
L 703 3866 
L 703 4441 
L 1819 4666 
L 2450 4666 
L 2450 531 
L 3481 531 
L 3481 0 
L 794 0 
L 794 531 
z
" transform="scale(0.015625)"/>
       </defs>
       <use xlink:href="#DejaVuSans-31"/>
       <use xlink:href="#DejaVuSans-30" x="63.623047"/>
       <use xlink:href="#DejaVuSans-30" x="127.246094"/>
      </g>
     </g>
    </g>
    <g id="xtick_3">
     <g id="line2d_3">
      <g>
       <use xlink:href="#m64736de6cf" x="202.920022" y="147.9168" style="stroke: #000000; stroke-width: 0.8"/>
      </g>
     </g>
     <g id="text_3">
      <!-- 200 -->
      <g transform="translate(193.376272 162.515237)scale(0.1 -0.1)">
       <defs>
        <path id="DejaVuSans-32" d="M 1228 531 
L 3431 531 
L 3431 0 
L 469 0 
L 469 531 
Q 828 903 1448 1529 
Q 2069 2156 2228 2338 
Q 2531 2678 2651 2914 
Q 2772 3150 2772 3378 
Q 2772 3750 2511 3984 
Q 2250 4219 1831 4219 
Q 1534 4219 1204 4116 
Q 875 4013 500 3803 
L 500 4441 
Q 881 4594 1212 4672 
Q 1544 4750 1819 4750 
Q 2544 4750 2975 4387 
Q 3406 4025 3406 3419 
Q 3406 3131 3298 2873 
Q 3191 2616 2906 2266 
Q 2828 2175 2409 1742 
Q 1991 1309 1228 531 
z
" transform="scale(0.015625)"/>
       </defs>
       <use xlink:href="#DejaVuSans-32"/>
       <use xlink:href="#DejaVuSans-30" x="63.623047"/>
       <use xlink:href="#DejaVuSans-30" x="127.246094"/>
      </g>
     </g>
    </g>
    <g id="xtick_4">
     <g id="line2d_4">
      <g>
       <use xlink:href="#m64736de6cf" x="267.463669" y="147.9168" style="stroke: #000000; stroke-width: 0.8"/>
      </g>
     </g>
     <g id="text_4">
      <!-- 300 -->
      <g transform="translate(257.919919 162.515237)scale(0.1 -0.1)">
       <defs>
        <path id="DejaVuSans-33" d="M 2597 2516 
Q 3050 2419 3304 2112 
Q 3559 1806 3559 1356 
Q 3559 666 3084 287 
Q 2609 -91 1734 -91 
Q 1441 -91 1130 -33 
Q 819 25 488 141 
L 488 750 
Q 750 597 1062 519 
Q 1375 441 1716 441 
Q 2309 441 2620 675 
Q 2931 909 2931 1356 
Q 2931 1769 2642 2001 
Q 2353 2234 1838 2234 
L 1294 2234 
L 1294 2753 
L 1863 2753 
Q 2328 2753 2575 2939 
Q 2822 3125 2822 3475 
Q 2822 3834 2567 4026 
Q 2313 4219 1838 4219 
Q 1578 4219 1281 4162 
Q 984 4106 628 3988 
L 628 4550 
Q 988 4650 1302 4700 
Q 1616 4750 1894 4750 
Q 2613 4750 3031 4423 
Q 3450 4097 3450 3541 
Q 3450 3153 3228 2886 
Q 3006 2619 2597 2516 
z
" transform="scale(0.015625)"/>
       </defs>
       <use xlink:href="#DejaVuSans-33"/>
       <use xlink:href="#DejaVuSans-30" x="63.623047"/>
       <use xlink:href="#DejaVuSans-30" x="127.246094"/>
      </g>
     </g>
    </g>
    <g id="xtick_5">
     <g id="line2d_5">
      <g>
       <use xlink:href="#m64736de6cf" x="332.007316" y="147.9168" style="stroke: #000000; stroke-width: 0.8"/>
      </g>
     </g>
     <g id="text_5">
      <!-- 400 -->
      <g transform="translate(322.463566 162.515237)scale(0.1 -0.1)">
       <defs>
        <path id="DejaVuSans-34" d="M 2419 4116 
L 825 1625 
L 2419 1625 
L 2419 4116 
z
M 2253 4666 
L 3047 4666 
L 3047 1625 
L 3713 1625 
L 3713 1100 
L 3047 1100 
L 3047 0 
L 2419 0 
L 2419 1100 
L 313 1100 
L 313 1709 
L 2253 4666 
z
" transform="scale(0.015625)"/>
       </defs>
       <use xlink:href="#DejaVuSans-34"/>
       <use xlink:href="#DejaVuSans-30" x="63.623047"/>
       <use xlink:href="#DejaVuSans-30" x="127.246094"/>
      </g>
     </g>
    </g>
    <g id="xtick_6">
     <g id="line2d_6">
      <g>
       <use xlink:href="#m64736de6cf" x="396.550963" y="147.9168" style="stroke: #000000; stroke-width: 0.8"/>
      </g>
     </g>
     <g id="text_6">
      <!-- 500 -->
      <g transform="translate(387.007213 162.515237)scale(0.1 -0.1)">
       <defs>
        <path id="DejaVuSans-35" d="M 691 4666 
L 3169 4666 
L 3169 4134 
L 1269 4134 
L 1269 2991 
Q 1406 3038 1543 3061 
Q 1681 3084 1819 3084 
Q 2600 3084 3056 2656 
Q 3513 2228 3513 1497 
Q 3513 744 3044 326 
Q 2575 -91 1722 -91 
Q 1428 -91 1123 -41 
Q 819 9 494 109 
L 494 744 
Q 775 591 1075 516 
Q 1375 441 1709 441 
Q 2250 441 2565 725 
Q 2881 1009 2881 1497 
Q 2881 1984 2565 2268 
Q 2250 2553 1709 2553 
Q 1456 2553 1204 2497 
Q 953 2441 691 2322 
L 691 4666 
z
" transform="scale(0.015625)"/>
       </defs>
       <use xlink:href="#DejaVuSans-35"/>
       <use xlink:href="#DejaVuSans-30" x="63.623047"/>
       <use xlink:href="#DejaVuSans-30" x="127.246094"/>
      </g>
     </g>
    </g>
    <g id="text_7">
     <!-- Time [h] -->
     <g transform="translate(215.267031 176.193362)scale(0.1 -0.1)">
      <defs>
       <path id="DejaVuSans-54" d="M -19 4666 
L 3928 4666 
L 3928 4134 
L 2272 4134 
L 2272 0 
L 1638 0 
L 1638 4134 
L -19 4134 
L -19 4666 
z
" transform="scale(0.015625)"/>
       <path id="DejaVuSans-69" d="M 603 3500 
L 1178 3500 
L 1178 0 
L 603 0 
L 603 3500 
z
M 603 4863 
L 1178 4863 
L 1178 4134 
L 603 4134 
L 603 4863 
z
" transform="scale(0.015625)"/>
       <path id="DejaVuSans-6d" d="M 3328 2828 
Q 3544 3216 3844 3400 
Q 4144 3584 4550 3584 
Q 5097 3584 5394 3201 
Q 5691 2819 5691 2113 
L 5691 0 
L 5113 0 
L 5113 2094 
Q 5113 2597 4934 2840 
Q 4756 3084 4391 3084 
Q 3944 3084 3684 2787 
Q 3425 2491 3425 1978 
L 3425 0 
L 2847 0 
L 2847 2094 
Q 2847 2600 2669 2842 
Q 2491 3084 2119 3084 
Q 1678 3084 1418 2786 
Q 1159 2488 1159 1978 
L 1159 0 
L 581 0 
L 581 3500 
L 1159 3500 
L 1159 2956 
Q 1356 3278 1631 3431 
Q 1906 3584 2284 3584 
Q 2666 3584 2933 3390 
Q 3200 3197 3328 2828 
z
" transform="scale(0.015625)"/>
       <path id="DejaVuSans-65" d="M 3597 1894 
L 3597 1613 
L 953 1613 
Q 991 1019 1311 708 
Q 1631 397 2203 397 
Q 2534 397 2845 478 
Q 3156 559 3463 722 
L 3463 178 
Q 3153 47 2828 -22 
Q 2503 -91 2169 -91 
Q 1331 -91 842 396 
Q 353 884 353 1716 
Q 353 2575 817 3079 
Q 1281 3584 2069 3584 
Q 2775 3584 3186 3129 
Q 3597 2675 3597 1894 
z
M 3022 2063 
Q 3016 2534 2758 2815 
Q 2500 3097 2075 3097 
Q 1594 3097 1305 2825 
Q 1016 2553 972 2059 
L 3022 2063 
z
" transform="scale(0.015625)"/>
       <path id="DejaVuSans-20" transform="scale(0.015625)"/>
       <path id="DejaVuSans-5b" d="M 550 4863 
L 1875 4863 
L 1875 4416 
L 1125 4416 
L 1125 -397 
L 1875 -397 
L 1875 -844 
L 550 -844 
L 550 4863 
z
" transform="scale(0.015625)"/>
       <path id="DejaVuSans-68" d="M 3513 2113 
L 3513 0 
L 2938 0 
L 2938 2094 
Q 2938 2591 2744 2837 
Q 2550 3084 2163 3084 
Q 1697 3084 1428 2787 
Q 1159 2491 1159 1978 
L 1159 0 
L 581 0 
L 581 4863 
L 1159 4863 
L 1159 2956 
Q 1366 3272 1645 3428 
Q 1925 3584 2291 3584 
Q 2894 3584 3203 3211 
Q 3513 2838 3513 2113 
z
" transform="scale(0.015625)"/>
       <path id="DejaVuSans-5d" d="M 1947 4863 
L 1947 -844 
L 622 -844 
L 622 -397 
L 1369 -397 
L 1369 4416 
L 622 4416 
L 622 4863 
L 1947 4863 
z
" transform="scale(0.015625)"/>
      </defs>
      <use xlink:href="#DejaVuSans-54"/>
      <use xlink:href="#DejaVuSans-69" x="57.958984"/>
      <use xlink:href="#DejaVuSans-6d" x="85.742188"/>
      <use xlink:href="#DejaVuSans-65" x="183.154297"/>
      <use xlink:href="#DejaVuSans-20" x="244.677734"/>
      <use xlink:href="#DejaVuSans-5b" x="276.464844"/>
      <use xlink:href="#DejaVuSans-68" x="315.478516"/>
      <use xlink:href="#DejaVuSans-5d" x="378.857422"/>
     </g>
    </g>
   </g>
   <g id="matplotlib.axis_2">
    <g id="ytick_1">
     <g id="line2d_7">
      <defs>
       <path id="m2af80345e7" d="M 0 0 
L -3.5 0 
" style="stroke: #000000; stroke-width: 0.8"/>
      </defs>
      <g>
       <use xlink:href="#m2af80345e7" x="57.6" y="143.301479" style="stroke: #000000; stroke-width: 0.8"/>
      </g>
     </g>
     <g id="text_8">
      <!-- 0 -->
      <g transform="translate(44.2375 147.100698)scale(0.1 -0.1)">
       <use xlink:href="#DejaVuSans-30"/>
      </g>
     </g>
    </g>
    <g id="ytick_2">
     <g id="line2d_8">
      <g>
       <use xlink:href="#m2af80345e7" x="57.6" y="119.05371" style="stroke: #000000; stroke-width: 0.8"/>
      </g>
     </g>
     <g id="text_9">
      <!-- 25 -->
      <g transform="translate(37.875 122.852928)scale(0.1 -0.1)">
       <use xlink:href="#DejaVuSans-32"/>
       <use xlink:href="#DejaVuSans-35" x="63.623047"/>
      </g>
     </g>
    </g>
    <g id="ytick_3">
     <g id="line2d_9">
      <g>
       <use xlink:href="#m2af80345e7" x="57.6" y="94.80594" style="stroke: #000000; stroke-width: 0.8"/>
      </g>
     </g>
     <g id="text_10">
      <!-- 50 -->
      <g transform="translate(37.875 98.605158)scale(0.1 -0.1)">
       <use xlink:href="#DejaVuSans-35"/>
       <use xlink:href="#DejaVuSans-30" x="63.623047"/>
      </g>
     </g>
    </g>
    <g id="ytick_4">
     <g id="line2d_10">
      <g>
       <use xlink:href="#m2af80345e7" x="57.6" y="70.55817" style="stroke: #000000; stroke-width: 0.8"/>
      </g>
     </g>
     <g id="text_11">
      <!-- 75 -->
      <g transform="translate(37.875 74.357389)scale(0.1 -0.1)">
       <defs>
        <path id="DejaVuSans-37" d="M 525 4666 
L 3525 4666 
L 3525 4397 
L 1831 0 
L 1172 0 
L 2766 4134 
L 525 4134 
L 525 4666 
z
" transform="scale(0.015625)"/>
       </defs>
       <use xlink:href="#DejaVuSans-37"/>
       <use xlink:href="#DejaVuSans-35" x="63.623047"/>
      </g>
     </g>
    </g>
    <g id="ytick_5">
     <g id="line2d_11">
      <g>
       <use xlink:href="#m2af80345e7" x="57.6" y="46.3104" style="stroke: #000000; stroke-width: 0.8"/>
      </g>
     </g>
     <g id="text_12">
      <!-- 100 -->
      <g transform="translate(31.5125 50.109619)scale(0.1 -0.1)">
       <use xlink:href="#DejaVuSans-31"/>
       <use xlink:href="#DejaVuSans-30" x="63.623047"/>
       <use xlink:href="#DejaVuSans-30" x="127.246094"/>
      </g>
     </g>
    </g>
    <g id="text_13">
     <!-- Price [$/kwh] -->
     <g transform="translate(25.432812 127.401431)rotate(-90)scale(0.1 -0.1)">
      <defs>
       <path id="DejaVuSans-50" d="M 1259 4147 
L 1259 2394 
L 2053 2394 
Q 2494 2394 2734 2622 
Q 2975 2850 2975 3272 
Q 2975 3691 2734 3919 
Q 2494 4147 2053 4147 
L 1259 4147 
z
M 628 4666 
L 2053 4666 
Q 2838 4666 3239 4311 
Q 3641 3956 3641 3272 
Q 3641 2581 3239 2228 
Q 2838 1875 2053 1875 
L 1259 1875 
L 1259 0 
L 628 0 
L 628 4666 
z
" transform="scale(0.015625)"/>
       <path id="DejaVuSans-72" d="M 2631 2963 
Q 2534 3019 2420 3045 
Q 2306 3072 2169 3072 
Q 1681 3072 1420 2755 
Q 1159 2438 1159 1844 
L 1159 0 
L 581 0 
L 581 3500 
L 1159 3500 
L 1159 2956 
Q 1341 3275 1631 3429 
Q 1922 3584 2338 3584 
Q 2397 3584 2469 3576 
Q 2541 3569 2628 3553 
L 2631 2963 
z
" transform="scale(0.015625)"/>
       <path id="DejaVuSans-63" d="M 3122 3366 
L 3122 2828 
Q 2878 2963 2633 3030 
Q 2388 3097 2138 3097 
Q 1578 3097 1268 2742 
Q 959 2388 959 1747 
Q 959 1106 1268 751 
Q 1578 397 2138 397 
Q 2388 397 2633 464 
Q 2878 531 3122 666 
L 3122 134 
Q 2881 22 2623 -34 
Q 2366 -91 2075 -91 
Q 1284 -91 818 406 
Q 353 903 353 1747 
Q 353 2603 823 3093 
Q 1294 3584 2113 3584 
Q 2378 3584 2631 3529 
Q 2884 3475 3122 3366 
z
" transform="scale(0.015625)"/>
       <path id="DejaVuSans-24" d="M 2163 -941 
L 1850 -941 
L 1847 0 
Q 1519 6 1191 76 
Q 863 147 531 288 
L 531 850 
Q 850 650 1176 548 
Q 1503 447 1850 444 
L 1850 1869 
Q 1159 1981 845 2250 
Q 531 2519 531 2988 
Q 531 3497 872 3790 
Q 1213 4084 1850 4128 
L 1850 4863 
L 2163 4863 
L 2163 4138 
Q 2453 4125 2725 4076 
Q 2997 4028 3256 3944 
L 3256 3397 
Q 2997 3528 2723 3600 
Q 2450 3672 2163 3684 
L 2163 2350 
Q 2872 2241 3206 1959 
Q 3541 1678 3541 1191 
Q 3541 663 3186 358 
Q 2831 53 2163 6 
L 2163 -941 
z
M 1850 2406 
L 1850 3688 
Q 1488 3647 1297 3481 
Q 1106 3316 1106 3041 
Q 1106 2772 1282 2622 
Q 1459 2472 1850 2406 
z
M 2163 1806 
L 2163 453 
Q 2559 506 2761 678 
Q 2963 850 2963 1131 
Q 2963 1406 2770 1568 
Q 2578 1731 2163 1806 
z
" transform="scale(0.015625)"/>
       <path id="DejaVuSans-2f" d="M 1625 4666 
L 2156 4666 
L 531 -594 
L 0 -594 
L 1625 4666 
z
" transform="scale(0.015625)"/>
       <path id="DejaVuSans-6b" d="M 581 4863 
L 1159 4863 
L 1159 1991 
L 2875 3500 
L 3609 3500 
L 1753 1863 
L 3688 0 
L 2938 0 
L 1159 1709 
L 1159 0 
L 581 0 
L 581 4863 
z
" transform="scale(0.015625)"/>
       <path id="DejaVuSans-77" d="M 269 3500 
L 844 3500 
L 1563 769 
L 2278 3500 
L 2956 3500 
L 3675 769 
L 4391 3500 
L 4966 3500 
L 4050 0 
L 3372 0 
L 2619 2869 
L 1863 0 
L 1184 0 
L 269 3500 
z
" transform="scale(0.015625)"/>
      </defs>
      <use xlink:href="#DejaVuSans-50"/>
      <use xlink:href="#DejaVuSans-72" x="58.552734"/>
      <use xlink:href="#DejaVuSans-69" x="99.666016"/>
      <use xlink:href="#DejaVuSans-63" x="127.449219"/>
      <use xlink:href="#DejaVuSans-65" x="182.429688"/>
      <use xlink:href="#DejaVuSans-20" x="243.953125"/>
      <use xlink:href="#DejaVuSans-5b" x="275.740234"/>
      <use xlink:href="#DejaVuSans-24" x="314.753906"/>
      <use xlink:href="#DejaVuSans-2f" x="378.376953"/>
      <use xlink:href="#DejaVuSans-6b" x="412.068359"/>
      <use xlink:href="#DejaVuSans-77" x="469.978516"/>
      <use xlink:href="#DejaVuSans-68" x="551.765625"/>
      <use xlink:href="#DejaVuSans-5d" x="615.144531"/>
     </g>
    </g>
   </g>
   <g id="line2d_12">
    <path d="M 73.832727 113.379731 
L 74.478164 117.880118 
L 75.1236 115.688119 
L 75.769037 117.754029 
L 77.05991 119.170099 
L 77.705346 118.423268 
L 78.350783 108.539877 
L 78.996219 112.885077 
L 79.641656 81.702445 
L 80.287092 108.753257 
L 80.932528 104.252871 
L 81.577965 97.802964 
L 82.223401 105.484658 
L 82.868838 105.339171 
L 83.514274 101.556519 
L 84.159711 119.121603 
L 84.805147 109.868654 
L 85.450584 117.045994 
L 86.09602 112.021856 
L 86.741457 118.888825 
L 87.386893 108.258602 
L 88.03233 103.680624 
L 88.677766 102.031775 
L 89.323203 85.456 
L 89.968639 115.756013 
L 90.614076 110.120831 
L 91.259512 118.248684 
L 91.904948 109.858955 
L 92.550385 116.085783 
L 93.195821 112.565006 
L 93.841258 110.828866 
L 94.486694 119.441674 
L 95.132131 119.887833 
L 95.777567 114.59212 
L 96.423004 66.649429 
L 97.06844 106.357577 
L 97.713877 104.408057 
L 98.359313 81.615153 
L 99.00475 101.828094 
L 99.650186 117.860719 
L 100.941059 119.616258 
L 101.586496 116.667729 
L 102.231932 118.782135 
L 102.877369 118.714241 
L 103.522805 119.742346 
L 104.168241 111.847272 
L 104.813678 116.910207 
L 105.459114 120.149709 
L 106.749987 128.190269 
L 107.395424 129.635436 
L 108.04086 127.773208 
L 108.686297 128.277561 
L 109.331733 122.768468 
L 109.97717 123.350414 
L 110.622606 120.392187 
L 111.913479 111.313821 
L 112.558916 111.090742 
L 113.204352 112.623201 
L 113.849789 110.343911 
L 114.495225 113.088758 
L 115.140661 117.113888 
L 115.786098 118.103197 
L 116.431534 116.580437 
L 117.722407 115.823907 
L 118.367844 115.261358 
L 119.01328 116.842313 
L 119.658717 116.55134 
L 120.304153 116.046986 
L 120.94959 117.045994 
L 121.595026 118.549356 
L 122.240463 112.96267 
L 122.885899 116.997499 
L 123.531336 116.9878 
L 124.176772 115.077075 
L 124.822209 117.986808 
L 125.467645 119.005214 
L 126.113082 117.53095 
L 126.758518 112.206139 
L 127.403954 105.601047 
L 128.049391 109.723168 
L 128.694827 112.584405 
L 129.340264 110.954954 
L 129.9857 116.425251 
L 130.631137 115.416544 
L 131.276573 117.210879 
L 131.92201 118.665745 
L 132.567446 117.404861 
L 133.212883 117.346667 
L 133.858319 116.32826 
L 134.503756 115.853004 
L 135.149192 109.635876 
L 135.794629 118.39417 
L 136.440065 107.41478 
L 137.085502 118.025604 
L 137.730938 118.035303 
L 138.376374 117.860719 
L 139.021811 122.729672 
L 139.667247 121.856752 
L 140.312684 116.415552 
L 140.95812 102.778606 
L 141.603557 120.877142 
L 142.248993 113.011165 
L 142.89443 118.335976 
L 143.539866 112.215839 
L 144.185303 92.497552 
L 144.830739 91.062084 
L 145.476176 104.534145 
L 146.121612 113.311838 
L 146.767049 116.696826 
L 147.412485 114.815199 
L 148.057922 114.339943 
L 148.703358 111.701786 
L 149.348795 100.363529 
L 149.994231 112.749289 
L 150.639667 101.411032 
L 151.93054 108.06462 
L 152.575977 139.121164 
L 153.221413 133.582973 
L 153.86685 123.515299 
L 154.512286 119.37378 
L 155.157723 121.643371 
L 155.803159 119.228294 
L 156.448596 118.83063 
L 157.094032 114.601819 
L 157.739469 96.115319 
L 158.384905 119.189497 
L 159.030342 116.367057 
L 159.675778 104.737826 
L 160.321215 118.50086 
L 160.966651 125.775191 
L 161.612087 127.113668 
L 162.257524 126.977881 
L 162.90296 127.346447 
L 163.548397 127.899296 
L 164.193833 127.327049 
L 164.83927 127.763509 
L 165.484706 127.152465 
L 166.130143 124.019653 
L 166.775579 123.72868 
L 167.421016 124.27183 
L 168.066452 123.786874 
L 168.711889 122.700574 
L 169.357325 123.243724 
L 170.002762 123.39891 
L 170.648198 123.001247 
L 171.293635 120.401886 
L 171.939071 123.670485 
L 172.584508 125.047758 
L 173.229944 124.785882 
L 173.87538 125.232041 
L 174.520817 126.822695 
L 175.166253 125.445422 
L 175.81169 119.024612 
L 176.457126 119.664753 
L 177.102563 120.983832 
L 177.747999 117.909215 
L 178.393436 118.859727 
L 179.038872 115.843305 
L 179.684309 114.029572 
L 180.329745 110.586388 
L 180.975182 109.829858 
L 182.266055 121.22631 
L 182.911491 123.117636 
L 183.556928 126.619014 
L 184.202364 128.869207 
L 184.8478 124.494909 
L 185.493237 124.388219 
L 186.138673 123.137034 
L 186.78411 122.555088 
L 187.429546 121.245708 
L 188.074983 118.161392 
L 189.365856 117.647339 
L 190.011292 116.182774 
L 190.656729 112.409821 
L 191.302165 89.791501 
L 191.947602 112.157644 
L 192.593038 121.750062 
L 193.238475 119.305886 
L 193.883911 111.158636 
L 194.529348 108.190709 
L 195.174784 105.979312 
L 195.82022 90.140669 
L 196.465657 88.899183 
L 197.111093 74.631795 
L 197.75653 96.968841 
L 198.401966 113.651306 
L 199.047403 116.958702 
L 199.692839 114.145961 
L 200.338276 116.541641 
L 200.983712 115.988792 
L 201.629149 110.227521 
L 202.274585 102.96289 
L 202.920022 110.634884 
L 203.565458 114.611518 
L 204.210895 103.622429 
L 204.856331 108.2877 
L 206.147204 99.956166 
L 206.792641 101.343138 
L 207.438077 108.316797 
L 208.083513 107.443877 
L 208.72895 102.264554 
L 209.374386 104.291667 
L 210.019823 91.042686 
L 210.665259 110.402105 
L 211.310696 109.58738 
L 211.956132 103.535137 
L 212.601569 98.792273 
L 213.247005 94.941727 
L 213.892442 46.3104 
L 214.537878 104.999702 
L 215.183315 105.56225 
L 215.828751 108.093718 
L 216.474188 109.218814 
L 217.119624 109.509787 
L 217.765061 93.399569 
L 218.410497 97.318009 
L 219.055933 97.230717 
L 219.70137 100.004662 
L 220.346806 99.868874 
L 220.992243 106.65825 
L 221.637679 101.731103 
L 222.283116 46.3104 
L 222.928552 105.067596 
L 223.573989 104.427455 
L 224.219425 107.327488 
L 224.864862 107.472975 
L 225.510298 109.500088 
L 226.155735 108.762956 
L 226.801171 98.142433 
L 227.446608 46.3104 
L 228.092044 123.641388 
L 228.737481 82.41048 
L 229.382917 81.042906 
L 230.028354 114.320545 
L 230.67379 117.133286 
L 231.319226 115.959694 
L 231.964663 110.557291 
L 232.610099 110.033539 
L 233.255536 109.180018 
L 233.900972 110.343911 
L 234.546409 101.449829 
L 235.191845 67.134385 
L 235.837282 103.990995 
L 237.128155 57.367383 
L 237.773591 46.3104 
L 238.419028 71.023727 
L 239.064464 55.505154 
L 239.709901 109.567982 
L 240.355337 105.872622 
L 241.000774 107.2014 
L 241.64621 113.670705 
L 242.291646 84.418195 
L 242.937083 105.979312 
L 243.582519 88.026263 
L 244.227956 96.154116 
L 245.518829 118.122595 
L 246.164265 121.265106 
L 246.809702 133.961239 
L 247.455138 129.034092 
L 248.100575 136.395715 
L 248.746011 130.382268 
L 249.391448 116.696826 
L 250.036884 116.76472 
L 250.682321 119.034311 
L 251.327757 116.483446 
L 251.973194 116.541641 
L 252.61863 114.223554 
L 253.264067 77.260253 
L 253.909503 108.132514 
L 254.554939 114.563023 
L 255.200376 113.583413 
L 255.845812 111.740582 
L 256.491249 113.340935 
L 257.136685 110.828866 
L 257.782122 108.93754 
L 258.427558 111.953963 
L 259.072995 111.643591 
L 259.718431 115.503836 
L 260.363868 108.72416 
L 261.009304 120.974133 
L 261.654741 122.506592 
L 262.300177 133.864247 
L 262.945614 143.0784 
L 263.59105 120.091514 
L 264.236487 120.237001 
L 264.881923 118.61725 
L 265.527359 117.53095 
L 266.172796 116.929605 
L 266.818232 115.882101 
L 267.463669 113.39913 
L 268.109105 109.878353 
L 268.754542 107.831842 
L 269.399978 112.758989 
L 270.045415 114.504828 
L 270.690851 114.349642 
L 271.336288 112.429219 
L 271.981724 116.017889 
L 272.627161 117.181782 
L 273.272597 117.104189 
L 273.918034 117.841321 
L 274.56347 112.749289 
L 275.208907 114.863695 
L 275.854343 115.018881 
L 276.49978 116.910207 
L 277.145216 116.056685 
L 277.790652 112.652298 
L 278.436089 112.351626 
L 279.081525 115.8918 
L 279.726962 113.117856 
L 280.372398 105.45556 
L 281.017835 101.401333 
L 281.663271 110.324512 
L 282.308708 115.009182 
L 282.954144 115.290456 
L 283.599581 111.33322 
L 284.890454 73.972256 
L 285.53589 112.613502 
L 286.181327 113.564015 
L 286.826763 114.883093 
L 287.4722 112.885077 
L 288.117636 116.716225 
L 289.408509 110.89676 
L 290.053945 98.346114 
L 290.699382 97.676876 
L 291.344818 109.344903 
L 291.990255 89.578121 
L 292.635691 103.680624 
L 293.281128 106.774639 
L 293.926564 109.034531 
L 294.572001 106.706745 
L 295.217437 108.336195 
L 295.862874 112.186741 
L 296.50831 108.927841 
L 297.153747 108.278001 
L 297.799183 104.59234 
L 298.44462 104.825118 
L 299.090056 100.140449 
L 299.735492 94.1464 
L 300.380929 98.743778 
L 301.026365 104.679632 
L 301.671802 104.931808 
L 302.317238 108.927841 
L 302.962675 110.35361 
L 303.608111 103.942499 
L 304.253548 104.26257 
L 304.898984 111.11014 
L 305.544421 109.926849 
L 306.189857 109.771663 
L 306.835294 102.807704 
L 307.48073 111.498105 
L 308.126167 115.096474 
L 308.771603 116.929605 
L 309.41704 116.716225 
L 310.062476 114.301147 
L 310.707913 114.26235 
L 311.353349 115.9015 
L 311.998785 113.709501 
L 312.644222 101.731103 
L 313.289658 105.698038 
L 313.935095 112.73959 
L 314.580531 105.921117 
L 315.225968 104.941508 
L 315.871404 78.637527 
L 316.516841 113.631908 
L 317.162277 109.616478 
L 317.807714 114.068368 
L 318.45315 111.372016 
L 319.098587 113.243944 
L 319.744023 113.573714 
L 320.38946 113.098457 
L 321.034896 114.126563 
L 321.680333 111.21683 
L 322.325769 116.706525 
L 322.971205 115.484438 
L 323.616642 115.920898 
L 324.262078 116.105181 
L 325.552951 115.726916 
L 326.198388 115.222562 
L 326.843824 115.416544 
L 328.134697 111.129538 
L 328.780134 107.618461 
L 329.42557 103.021084 
L 330.071007 95.34909 
L 330.716443 93.38987 
L 331.36188 85.911858 
L 332.007316 102.73981 
L 332.652753 98.889264 
L 333.298189 100.644803 
L 333.943626 102.041474 
L 334.589062 96.251107 
L 335.234498 100.062856 
L 335.879935 97.783566 
L 336.525371 99.684591 
L 337.170808 95.310293 
L 337.816244 101.711705 
L 338.461681 104.844516 
L 339.107117 95.543072 
L 339.752554 105.533153 
L 340.39799 108.278001 
L 341.043427 106.376976 
L 341.688863 100.819387 
L 342.3343 104.47595 
L 342.979736 93.302578 
L 343.625173 95.378187 
L 344.270609 77.493032 
L 344.916046 73.855867 
L 345.561482 49.317123 
L 346.206918 49.966964 
L 346.852355 80.45126 
L 347.497791 94.747745 
L 348.143228 98.588592 
L 349.434101 84.001133 
L 350.079537 79.529845 
L 350.724974 77.017776 
L 351.37041 81.227189 
L 352.015847 95.717656 
L 352.661283 82.914833 
L 353.30672 93.428666 
L 353.952156 101.488625 
L 354.597593 107.375984 
L 355.243029 102.08997 
L 356.533902 86.493804 
L 357.179339 94.91263 
L 357.824775 101.032767 
L 359.761084 74.457211 
L 360.406521 46.3104 
L 361.051957 47.202718 
L 361.697394 46.3104 
L 362.34283 47.852558 
L 362.988267 78.71512 
L 363.633703 80.082694 
L 364.27914 81.139897 
L 364.924576 58.715559 
L 365.570013 88.685803 
L 366.215449 87.968069 
L 366.860886 86.920565 
L 367.506322 82.420179 
L 368.797195 67.706632 
L 369.442631 104.737826 
L 370.088068 95.572169 
L 370.733504 105.969613 
L 371.378941 105.484658 
L 372.024377 101.517722 
L 372.669814 102.351846 
L 373.960687 93.855427 
L 374.606123 79.15158 
L 375.25156 83.768355 
L 375.896996 79.200075 
L 376.542433 84.117523 
L 377.187869 46.3104 
L 377.833306 86.008849 
L 378.478742 109.858955 
L 379.124179 112.972369 
L 379.769615 114.194457 
L 380.415052 102.400341 
L 381.060488 106.056905 
L 382.351361 102.361545 
L 382.996797 104.582641 
L 383.642234 97.531389 
L 384.28767 103.535137 
L 384.933107 105.232481 
L 385.578543 104.990003 
L 386.22398 103.544836 
L 386.869416 105.484658 
L 388.160289 103.806712 
L 388.805726 106.279984 
L 389.451162 106.425471 
L 390.096599 95.610966 
L 390.742035 94.253091 
L 391.387472 92.594543 
L 392.032908 90.480138 
L 392.678344 57.386781 
L 393.323781 73.778274 
L 393.969217 101.207351 
L 394.614654 104.815419 
L 395.26009 105.077295 
L 395.905527 106.745542 
L 396.550963 105.106392 
L 397.1964 105.251879 
L 397.841836 97.744769 
L 398.487273 97.841761 
L 398.487273 97.841761 
" clip-path="url(#p7f5ea2b70f)" style="fill: none; stroke: #1f77b4; stroke-width: 1.5; stroke-linecap: square"/>
   </g>
   <g id="patch_3">
    <path d="M 57.6 147.9168 
L 57.6 41.472 
" style="fill: none; stroke: #000000; stroke-width: 0.8; stroke-linejoin: miter; stroke-linecap: square"/>
   </g>
   <g id="patch_4">
    <path d="M 414.72 147.9168 
L 414.72 41.472 
" style="fill: none; stroke: #000000; stroke-width: 0.8; stroke-linejoin: miter; stroke-linecap: square"/>
   </g>
   <g id="patch_5">
    <path d="M 57.6 147.9168 
L 414.72 147.9168 
" style="fill: none; stroke: #000000; stroke-width: 0.8; stroke-linejoin: miter; stroke-linecap: square"/>
   </g>
   <g id="patch_6">
    <path d="M 57.6 41.472 
L 414.72 41.472 
" style="fill: none; stroke: #000000; stroke-width: 0.8; stroke-linejoin: miter; stroke-linecap: square"/>
   </g>
   <g id="text_14">
    <!-- Power_price  -->
    <g transform="translate(198.182813 35.472)scale(0.12 -0.12)">
     <defs>
      <path id="DejaVuSans-6f" d="M 1959 3097 
Q 1497 3097 1228 2736 
Q 959 2375 959 1747 
Q 959 1119 1226 758 
Q 1494 397 1959 397 
Q 2419 397 2687 759 
Q 2956 1122 2956 1747 
Q 2956 2369 2687 2733 
Q 2419 3097 1959 3097 
z
M 1959 3584 
Q 2709 3584 3137 3096 
Q 3566 2609 3566 1747 
Q 3566 888 3137 398 
Q 2709 -91 1959 -91 
Q 1206 -91 779 398 
Q 353 888 353 1747 
Q 353 2609 779 3096 
Q 1206 3584 1959 3584 
z
" transform="scale(0.015625)"/>
      <path id="DejaVuSans-5f" d="M 3263 -1063 
L 3263 -1509 
L -63 -1509 
L -63 -1063 
L 3263 -1063 
z
" transform="scale(0.015625)"/>
      <path id="DejaVuSans-70" d="M 1159 525 
L 1159 -1331 
L 581 -1331 
L 581 3500 
L 1159 3500 
L 1159 2969 
Q 1341 3281 1617 3432 
Q 1894 3584 2278 3584 
Q 2916 3584 3314 3078 
Q 3713 2572 3713 1747 
Q 3713 922 3314 415 
Q 2916 -91 2278 -91 
Q 1894 -91 1617 61 
Q 1341 213 1159 525 
z
M 3116 1747 
Q 3116 2381 2855 2742 
Q 2594 3103 2138 3103 
Q 1681 3103 1420 2742 
Q 1159 2381 1159 1747 
Q 1159 1113 1420 752 
Q 1681 391 2138 391 
Q 2594 391 2855 752 
Q 3116 1113 3116 1747 
z
" transform="scale(0.015625)"/>
     </defs>
     <use xlink:href="#DejaVuSans-50"/>
     <use xlink:href="#DejaVuSans-6f" x="56.677734"/>
     <use xlink:href="#DejaVuSans-77" x="117.859375"/>
     <use xlink:href="#DejaVuSans-65" x="199.646484"/>
     <use xlink:href="#DejaVuSans-72" x="261.169922"/>
     <use xlink:href="#DejaVuSans-5f" x="302.283203"/>
     <use xlink:href="#DejaVuSans-70" x="352.283203"/>
     <use xlink:href="#DejaVuSans-72" x="415.759766"/>
     <use xlink:href="#DejaVuSans-69" x="456.873047"/>
     <use xlink:href="#DejaVuSans-63" x="484.65625"/>
     <use xlink:href="#DejaVuSans-65" x="539.636719"/>
     <use xlink:href="#DejaVuSans-20" x="601.160156"/>
    </g>
   </g>
  </g>
  <g id="axes_2">
   <g id="patch_7">
    <path d="M 57.6 307.584 
L 414.72 307.584 
L 414.72 201.1392 
L 57.6 201.1392 
z
" style="fill: #ffffff"/>
   </g>
   <g id="matplotlib.axis_3">
    <g id="xtick_7">
     <g id="line2d_13">
      <g>
       <use xlink:href="#m64736de6cf" x="73.832727" y="307.584" style="stroke: #000000; stroke-width: 0.8"/>
      </g>
     </g>
     <g id="text_15">
      <!-- 0 -->
      <g transform="translate(70.651477 322.182437)scale(0.1 -0.1)">
       <use xlink:href="#DejaVuSans-30"/>
      </g>
     </g>
    </g>
    <g id="xtick_8">
     <g id="line2d_14">
      <g>
       <use xlink:href="#m64736de6cf" x="138.376374" y="307.584" style="stroke: #000000; stroke-width: 0.8"/>
      </g>
     </g>
     <g id="text_16">
      <!-- 100 -->
      <g transform="translate(128.832624 322.182437)scale(0.1 -0.1)">
       <use xlink:href="#DejaVuSans-31"/>
       <use xlink:href="#DejaVuSans-30" x="63.623047"/>
       <use xlink:href="#DejaVuSans-30" x="127.246094"/>
      </g>
     </g>
    </g>
    <g id="xtick_9">
     <g id="line2d_15">
      <g>
       <use xlink:href="#m64736de6cf" x="202.920022" y="307.584" style="stroke: #000000; stroke-width: 0.8"/>
      </g>
     </g>
     <g id="text_17">
      <!-- 200 -->
      <g transform="translate(193.376272 322.182437)scale(0.1 -0.1)">
       <use xlink:href="#DejaVuSans-32"/>
       <use xlink:href="#DejaVuSans-30" x="63.623047"/>
       <use xlink:href="#DejaVuSans-30" x="127.246094"/>
      </g>
     </g>
    </g>
    <g id="xtick_10">
     <g id="line2d_16">
      <g>
       <use xlink:href="#m64736de6cf" x="267.463669" y="307.584" style="stroke: #000000; stroke-width: 0.8"/>
      </g>
     </g>
     <g id="text_18">
      <!-- 300 -->
      <g transform="translate(257.919919 322.182437)scale(0.1 -0.1)">
       <use xlink:href="#DejaVuSans-33"/>
       <use xlink:href="#DejaVuSans-30" x="63.623047"/>
       <use xlink:href="#DejaVuSans-30" x="127.246094"/>
      </g>
     </g>
    </g>
    <g id="xtick_11">
     <g id="line2d_17">
      <g>
       <use xlink:href="#m64736de6cf" x="332.007316" y="307.584" style="stroke: #000000; stroke-width: 0.8"/>
      </g>
     </g>
     <g id="text_19">
      <!-- 400 -->
      <g transform="translate(322.463566 322.182437)scale(0.1 -0.1)">
       <use xlink:href="#DejaVuSans-34"/>
       <use xlink:href="#DejaVuSans-30" x="63.623047"/>
       <use xlink:href="#DejaVuSans-30" x="127.246094"/>
      </g>
     </g>
    </g>
    <g id="xtick_12">
     <g id="line2d_18">
      <g>
       <use xlink:href="#m64736de6cf" x="396.550963" y="307.584" style="stroke: #000000; stroke-width: 0.8"/>
      </g>
     </g>
     <g id="text_20">
      <!-- 500 -->
      <g transform="translate(387.007213 322.182437)scale(0.1 -0.1)">
       <use xlink:href="#DejaVuSans-35"/>
       <use xlink:href="#DejaVuSans-30" x="63.623047"/>
       <use xlink:href="#DejaVuSans-30" x="127.246094"/>
      </g>
     </g>
    </g>
    <g id="text_21">
     <!-- Time [h] -->
     <g transform="translate(215.267031 335.860562)scale(0.1 -0.1)">
      <use xlink:href="#DejaVuSans-54"/>
      <use xlink:href="#DejaVuSans-69" x="57.958984"/>
      <use xlink:href="#DejaVuSans-6d" x="85.742188"/>
      <use xlink:href="#DejaVuSans-65" x="183.154297"/>
      <use xlink:href="#DejaVuSans-20" x="244.677734"/>
      <use xlink:href="#DejaVuSans-5b" x="276.464844"/>
      <use xlink:href="#DejaVuSans-68" x="315.478516"/>
      <use xlink:href="#DejaVuSans-5d" x="378.857422"/>
     </g>
    </g>
   </g>
   <g id="matplotlib.axis_4">
    <g id="ytick_6">
     <g id="line2d_19">
      <g>
       <use xlink:href="#m2af80345e7" x="57.6" y="300.422586" style="stroke: #000000; stroke-width: 0.8"/>
      </g>
     </g>
     <g id="text_22">
      <!-- 120 -->
      <g transform="translate(31.5125 304.221805)scale(0.1 -0.1)">
       <use xlink:href="#DejaVuSans-31"/>
       <use xlink:href="#DejaVuSans-32" x="63.623047"/>
       <use xlink:href="#DejaVuSans-30" x="127.246094"/>
      </g>
     </g>
    </g>
    <g id="ytick_7">
     <g id="line2d_20">
      <g>
       <use xlink:href="#m2af80345e7" x="57.6" y="273.489093" style="stroke: #000000; stroke-width: 0.8"/>
      </g>
     </g>
     <g id="text_23">
      <!-- 140 -->
      <g transform="translate(31.5125 277.288312)scale(0.1 -0.1)">
       <use xlink:href="#DejaVuSans-31"/>
       <use xlink:href="#DejaVuSans-34" x="63.623047"/>
       <use xlink:href="#DejaVuSans-30" x="127.246094"/>
      </g>
     </g>
    </g>
    <g id="ytick_8">
     <g id="line2d_21">
      <g>
       <use xlink:href="#m2af80345e7" x="57.6" y="246.5556" style="stroke: #000000; stroke-width: 0.8"/>
      </g>
     </g>
     <g id="text_24">
      <!-- 160 -->
      <g transform="translate(31.5125 250.354819)scale(0.1 -0.1)">
       <defs>
        <path id="DejaVuSans-36" d="M 2113 2584 
Q 1688 2584 1439 2293 
Q 1191 2003 1191 1497 
Q 1191 994 1439 701 
Q 1688 409 2113 409 
Q 2538 409 2786 701 
Q 3034 994 3034 1497 
Q 3034 2003 2786 2293 
Q 2538 2584 2113 2584 
z
M 3366 4563 
L 3366 3988 
Q 3128 4100 2886 4159 
Q 2644 4219 2406 4219 
Q 1781 4219 1451 3797 
Q 1122 3375 1075 2522 
Q 1259 2794 1537 2939 
Q 1816 3084 2150 3084 
Q 2853 3084 3261 2657 
Q 3669 2231 3669 1497 
Q 3669 778 3244 343 
Q 2819 -91 2113 -91 
Q 1303 -91 875 529 
Q 447 1150 447 2328 
Q 447 3434 972 4092 
Q 1497 4750 2381 4750 
Q 2619 4750 2861 4703 
Q 3103 4656 3366 4563 
z
" transform="scale(0.015625)"/>
       </defs>
       <use xlink:href="#DejaVuSans-31"/>
       <use xlink:href="#DejaVuSans-36" x="63.623047"/>
       <use xlink:href="#DejaVuSans-30" x="127.246094"/>
      </g>
     </g>
    </g>
    <g id="ytick_9">
     <g id="line2d_22">
      <g>
       <use xlink:href="#m2af80345e7" x="57.6" y="219.622108" style="stroke: #000000; stroke-width: 0.8"/>
      </g>
     </g>
     <g id="text_25">
      <!-- 180 -->
      <g transform="translate(31.5125 223.421326)scale(0.1 -0.1)">
       <defs>
        <path id="DejaVuSans-38" d="M 2034 2216 
Q 1584 2216 1326 1975 
Q 1069 1734 1069 1313 
Q 1069 891 1326 650 
Q 1584 409 2034 409 
Q 2484 409 2743 651 
Q 3003 894 3003 1313 
Q 3003 1734 2745 1975 
Q 2488 2216 2034 2216 
z
M 1403 2484 
Q 997 2584 770 2862 
Q 544 3141 544 3541 
Q 544 4100 942 4425 
Q 1341 4750 2034 4750 
Q 2731 4750 3128 4425 
Q 3525 4100 3525 3541 
Q 3525 3141 3298 2862 
Q 3072 2584 2669 2484 
Q 3125 2378 3379 2068 
Q 3634 1759 3634 1313 
Q 3634 634 3220 271 
Q 2806 -91 2034 -91 
Q 1263 -91 848 271 
Q 434 634 434 1313 
Q 434 1759 690 2068 
Q 947 2378 1403 2484 
z
M 1172 3481 
Q 1172 3119 1398 2916 
Q 1625 2713 2034 2713 
Q 2441 2713 2670 2916 
Q 2900 3119 2900 3481 
Q 2900 3844 2670 4047 
Q 2441 4250 2034 4250 
Q 1625 4250 1398 4047 
Q 1172 3844 1172 3481 
z
" transform="scale(0.015625)"/>
       </defs>
       <use xlink:href="#DejaVuSans-31"/>
       <use xlink:href="#DejaVuSans-38" x="63.623047"/>
       <use xlink:href="#DejaVuSans-30" x="127.246094"/>
      </g>
     </g>
    </g>
    <g id="text_26">
     <!-- Load [kwh] -->
     <g transform="translate(25.432812 282.001444)rotate(-90)scale(0.1 -0.1)">
      <defs>
       <path id="DejaVuSans-4c" d="M 628 4666 
L 1259 4666 
L 1259 531 
L 3531 531 
L 3531 0 
L 628 0 
L 628 4666 
z
" transform="scale(0.015625)"/>
       <path id="DejaVuSans-61" d="M 2194 1759 
Q 1497 1759 1228 1600 
Q 959 1441 959 1056 
Q 959 750 1161 570 
Q 1363 391 1709 391 
Q 2188 391 2477 730 
Q 2766 1069 2766 1631 
L 2766 1759 
L 2194 1759 
z
M 3341 1997 
L 3341 0 
L 2766 0 
L 2766 531 
Q 2569 213 2275 61 
Q 1981 -91 1556 -91 
Q 1019 -91 701 211 
Q 384 513 384 1019 
Q 384 1609 779 1909 
Q 1175 2209 1959 2209 
L 2766 2209 
L 2766 2266 
Q 2766 2663 2505 2880 
Q 2244 3097 1772 3097 
Q 1472 3097 1187 3025 
Q 903 2953 641 2809 
L 641 3341 
Q 956 3463 1253 3523 
Q 1550 3584 1831 3584 
Q 2591 3584 2966 3190 
Q 3341 2797 3341 1997 
z
" transform="scale(0.015625)"/>
       <path id="DejaVuSans-64" d="M 2906 2969 
L 2906 4863 
L 3481 4863 
L 3481 0 
L 2906 0 
L 2906 525 
Q 2725 213 2448 61 
Q 2172 -91 1784 -91 
Q 1150 -91 751 415 
Q 353 922 353 1747 
Q 353 2572 751 3078 
Q 1150 3584 1784 3584 
Q 2172 3584 2448 3432 
Q 2725 3281 2906 2969 
z
M 947 1747 
Q 947 1113 1208 752 
Q 1469 391 1925 391 
Q 2381 391 2643 752 
Q 2906 1113 2906 1747 
Q 2906 2381 2643 2742 
Q 2381 3103 1925 3103 
Q 1469 3103 1208 2742 
Q 947 2381 947 1747 
z
" transform="scale(0.015625)"/>
      </defs>
      <use xlink:href="#DejaVuSans-4c"/>
      <use xlink:href="#DejaVuSans-6f" x="53.962891"/>
      <use xlink:href="#DejaVuSans-61" x="115.144531"/>
      <use xlink:href="#DejaVuSans-64" x="176.423828"/>
      <use xlink:href="#DejaVuSans-20" x="239.900391"/>
      <use xlink:href="#DejaVuSans-5b" x="271.6875"/>
      <use xlink:href="#DejaVuSans-6b" x="310.701172"/>
      <use xlink:href="#DejaVuSans-77" x="368.611328"/>
      <use xlink:href="#DejaVuSans-68" x="450.398438"/>
      <use xlink:href="#DejaVuSans-5d" x="513.777344"/>
     </g>
    </g>
   </g>
   <g id="line2d_23">
    <path d="M 73.832727 271.905404 
L 74.478164 282.332706 
L 75.1236 288.536836 
L 75.769037 291.403906 
L 76.414473 291.496827 
L 77.705346 281.705155 
L 78.350783 280.975258 
L 78.996219 280.668216 
L 79.641656 282.755562 
L 80.287092 279.352515 
L 80.932528 271.151266 
L 81.577965 268.145488 
L 82.223401 266.994082 
L 83.514274 255.936536 
L 84.805147 223.895106 
L 85.450584 225.0317 
L 86.741457 236.792209 
L 87.386893 245.338207 
L 89.323203 285.778846 
L 89.968639 294.272323 
L 90.614076 299.062445 
L 91.259512 300.846789 
L 91.904948 300.935669 
L 92.550385 298.494148 
L 93.195821 292.943155 
L 93.841258 289.299054 
L 94.486694 286.981427 
L 95.132131 285.689966 
L 95.777567 286.317516 
L 96.423004 284.424091 
L 97.06844 284.596466 
L 98.359313 284.490079 
L 99.00475 277.99372 
L 99.650186 260.512536 
L 100.295623 236.808369 
L 100.941059 235.142533 
L 102.231932 243.432662 
L 102.877369 249.982887 
L 103.522805 260.566403 
L 104.813678 285.634752 
L 105.459114 293.487212 
L 106.104551 296.945472 
L 106.749987 298.763483 
L 107.395424 298.359481 
L 108.04086 295.796759 
L 108.686297 292.65766 
L 109.331733 288.765771 
L 109.97717 283.436979 
L 111.268043 263.581608 
L 112.558916 256.852275 
L 113.204352 252.961732 
L 113.849789 251.251455 
L 114.495225 248.78704 
L 115.786098 222.230616 
L 116.431534 223.39953 
L 117.076971 228.717548 
L 117.722407 236.714102 
L 118.367844 247.465952 
L 120.304153 289.451228 
L 120.94959 295.429117 
L 121.595026 298.21404 
L 122.240463 298.055132 
L 122.885899 295.054741 
L 123.531336 286.41717 
L 124.176772 270.60317 
L 124.822209 251.396896 
L 125.467645 238.552313 
L 126.113082 235.84415 
L 126.758518 242.604457 
L 127.403954 248.055796 
L 128.049391 246.097731 
L 128.694827 238.388019 
L 129.340264 237.000944 
L 129.9857 237.585401 
L 130.631137 228.708121 
L 131.276573 209.86949 
L 131.92201 211.204044 
L 133.212883 229.735634 
L 133.858319 241.081368 
L 135.149192 276.577018 
L 135.794629 289.072812 
L 136.440065 295.850626 
L 137.085502 299.457021 
L 137.730938 299.603808 
L 138.376374 296.771751 
L 139.021811 287.941606 
L 139.667247 272.647422 
L 140.312684 254.219526 
L 140.95812 243.277794 
L 141.603557 238.645234 
L 142.248993 239.395331 
L 142.89443 237.640614 
L 143.539866 236.786823 
L 144.185303 235.384934 
L 144.830739 234.640223 
L 145.476176 234.478622 
L 146.121612 223.35105 
L 146.767049 208.953751 
L 147.412485 210.736748 
L 148.703358 228.52632 
L 149.348795 240.756819 
L 150.639667 273.591441 
L 151.285104 286.130328 
L 151.93054 293.205757 
L 152.575977 297.08822 
L 153.221413 298.106306 
L 153.86685 295.034541 
L 154.512286 286.049528 
L 155.803159 252.790704 
L 156.448596 241.875906 
L 157.094032 240.098295 
L 157.739469 242.630044 
L 158.384905 243.695263 
L 159.030342 247.922475 
L 159.675778 247.222204 
L 160.966651 238.665434 
L 161.612087 227.791036 
L 162.257524 206.951246 
L 162.90296 207.73905 
L 164.193833 225.15694 
L 164.83927 237.375319 
L 166.130143 271.326334 
L 166.775579 282.973723 
L 167.421016 290.710369 
L 168.066452 293.290597 
L 168.711889 293.452198 
L 169.357325 290.31714 
L 170.002762 281.062792 
L 171.293635 248.341291 
L 171.939071 239.224304 
L 172.584508 239.364358 
L 173.229944 243.68045 
L 174.520817 247.150831 
L 175.166253 246.730668 
L 175.81169 245.472874 
L 176.457126 242.561363 
L 177.102563 231.164456 
L 177.747999 211.070724 
L 178.393436 208.855444 
L 179.684309 223.236582 
L 180.329745 234.61329 
L 181.620618 268.529291 
L 182.266055 279.980065 
L 182.911491 286.518171 
L 183.556928 289.297707 
L 184.202364 288.698437 
L 184.8478 285.500084 
L 185.493237 276.614725 
L 186.78411 245.241246 
L 187.429546 237.830495 
L 188.074983 237.110024 
L 188.720419 240.33935 
L 189.365856 244.21104 
L 190.011292 238.405525 
L 190.656729 243.100033 
L 191.302165 237.784708 
L 191.947602 236.95785 
L 192.593038 225.676757 
L 193.238475 210.4122 
L 193.883911 211.861222 
L 195.174784 225.792571 
L 195.82022 234.780277 
L 197.111093 263.774182 
L 197.75653 275.70168 
L 198.401966 282.941403 
L 199.047403 285.852913 
L 199.692839 287.117441 
L 200.338276 285.136482 
L 200.983712 282.308466 
L 201.629149 274.039883 
L 202.274585 267.907127 
L 202.920022 263.045631 
L 203.565458 263.005231 
L 204.210895 265.635287 
L 204.856331 265.60162 
L 205.501768 267.418284 
L 206.147204 263.865756 
L 206.792641 262.82343 
L 207.438077 256.491366 
L 208.083513 245.712582 
L 208.72895 228.228705 
L 209.374386 227.998424 
L 210.019823 232.762959 
L 210.665259 238.475553 
L 211.310696 245.708542 
L 213.247005 282.110504 
L 213.892442 289.028372 
L 214.537878 292.307525 
L 215.183315 293.542425 
L 215.828751 292.104177 
L 216.474188 290.249806 
L 217.119624 285.112242 
L 217.765061 281.643208 
L 218.410497 279.247474 
L 219.055933 279.534316 
L 219.70137 281.301153 
L 220.346806 284.479305 
L 220.992243 282.56568 
L 221.637679 279.695917 
L 222.283116 278.610497 
L 222.928552 272.370007 
L 223.573989 259.200875 
L 224.219425 233.51575 
L 224.864862 229.685807 
L 225.510298 232.644451 
L 226.155735 237.884362 
L 226.801171 247.080804 
L 228.092044 273.167238 
L 228.737481 282.907736 
L 229.382917 288.10994 
L 230.028354 288.837144 
L 230.67379 288.461422 
L 231.319226 285.195736 
L 231.964663 277.130502 
L 232.610099 260.687604 
L 233.255536 240.759513 
L 233.900972 229.934942 
L 234.546409 225.327968 
L 235.191845 222.153856 
L 235.837282 221.562666 
L 236.482718 227.519008 
L 237.128155 229.809701 
L 237.773591 226.913004 
L 238.419028 227.594421 
L 239.064464 221.453585 
L 239.709901 205.9776 
L 240.355337 206.770791 
L 241.64621 223.189449 
L 242.291646 234.558076 
L 243.582519 266.797467 
L 244.227956 277.921 
L 245.518829 290.668622 
L 246.164265 295.644585 
L 246.809702 292.263085 
L 247.455138 283.621473 
L 248.746011 248.826094 
L 249.391448 241.580984 
L 250.036884 243.222581 
L 251.327757 252.431142 
L 251.973194 254.92653 
L 252.61863 256.896715 
L 253.264067 256.693367 
L 253.909503 253.862657 
L 254.554939 243.271061 
L 255.200376 222.735619 
L 255.845812 221.009182 
L 256.491249 229.245445 
L 258.427558 257.939041 
L 259.072995 274.217644 
L 259.718431 285.316937 
L 260.363868 292.384285 
L 261.009304 295.251356 
L 261.654741 295.250009 
L 262.300177 291.615334 
L 262.945614 284.158797 
L 263.59105 268.588544 
L 264.236487 249.212589 
L 264.881923 235.1964 
L 265.527359 228.384919 
L 266.172796 227.764102 
L 266.818232 230.691773 
L 267.463669 237.49248 
L 268.109105 237.730841 
L 268.754542 235.86839 
L 269.399978 236.556541 
L 270.045415 227.857023 
L 270.690851 212.020129 
L 271.336288 212.472612 
L 271.981724 220.206564 
L 272.627161 229.413779 
L 273.272597 241.614651 
L 274.56347 275.107796 
L 275.208907 286.693238 
L 275.854343 293.864281 
L 276.49978 295.880253 
L 277.145216 295.380636 
L 277.790652 293.411798 
L 278.436089 285.497391 
L 279.726962 252.350341 
L 280.372398 245.902463 
L 281.017835 246.344172 
L 281.663271 244.570602 
L 282.308708 240.981714 
L 282.954144 242.51423 
L 283.599581 242.817232 
L 284.245017 248.408625 
L 284.890454 247.786461 
L 285.53589 237.334919 
L 286.181327 220.691367 
L 286.826763 220.828728 
L 288.117636 236.051538 
L 288.763072 247.461912 
L 290.053945 279.124927 
L 290.699382 290.384473 
L 291.344818 295.858706 
L 291.990255 298.001265 
L 292.635691 297.431622 
L 293.281128 294.195563 
L 293.926564 285.171496 
L 294.572001 269.506976 
L 295.217437 250.769345 
L 295.862874 238.070203 
L 296.50831 230.364531 
L 297.153747 226.507655 
L 297.799183 225.612116 
L 298.44462 226.336627 
L 299.090056 228.597694 
L 299.735492 229.57942 
L 300.380929 232.593278 
L 301.026365 226.584415 
L 301.671802 219.227532 
L 302.317238 223.916653 
L 304.253548 249.756646 
L 306.189857 289.759616 
L 306.835294 297.159594 
L 307.48073 301.330245 
L 308.126167 302.511279 
L 308.771603 301.050137 
L 309.41704 297.753477 
L 310.707913 283.368299 
L 311.353349 277.546624 
L 311.998785 273.187438 
L 312.644222 270.234181 
L 313.289658 268.439063 
L 313.935095 274.68898 
L 314.580531 272.849423 
L 315.225968 267.622979 
L 315.871404 270.828064 
L 316.516841 260.489643 
L 317.162277 242.06848 
L 317.807714 239.393985 
L 319.098587 248.851681 
L 319.744023 255.581014 
L 320.38946 265.786114 
L 321.680333 288.482969 
L 322.325769 294.88506 
L 322.971205 299.703462 
L 323.616642 300.682494 
L 324.262078 300.048211 
L 324.907515 297.478755 
L 325.552951 292.630727 
L 326.198388 290.042418 
L 326.843824 288.653997 
L 327.489261 288.563769 
L 328.134697 290.066658 
L 329.42557 282.542787 
L 330.071007 281.706502 
L 330.716443 283.608007 
L 331.36188 276.954087 
L 332.007316 261.906345 
L 332.652753 243.246821 
L 333.298189 240.693526 
L 334.589062 252.274928 
L 335.234498 260.913845 
L 337.170808 295.612264 
L 337.816244 300.908736 
L 338.461681 302.7456 
L 339.107117 301.6723 
L 339.752554 298.348707 
L 340.39799 290.119179 
L 341.688863 263.4025 
L 342.3343 257.532345 
L 342.979736 258.461551 
L 343.625173 258.365937 
L 344.916046 251.205668 
L 345.561482 253.900364 
L 346.206918 255.912296 
L 346.852355 251.951726 
L 347.497791 242.718924 
L 348.143228 223.757745 
L 348.788664 222.887794 
L 350.079537 237.756428 
L 350.724974 248.69412 
L 352.015847 278.413883 
L 352.661283 288.881585 
L 353.30672 295.361783 
L 353.952156 297.16094 
L 354.597593 296.938739 
L 355.243029 293.558586 
L 355.888466 283.702274 
L 357.179339 249.992314 
L 357.824775 241.694105 
L 358.470211 244.414388 
L 359.115648 245.064832 
L 359.761084 238.894368 
L 360.406521 242.360709 
L 361.051957 237.023837 
L 361.697394 236.714102 
L 362.34283 239.609453 
L 362.988267 234.233527 
L 363.633703 215.627871 
L 364.27914 214.549184 
L 364.924576 222.000335 
L 365.570013 230.839907 
L 366.215449 242.759325 
L 367.506322 273.975243 
L 368.151759 284.570879 
L 368.797195 291.759428 
L 369.442631 294.328883 
L 370.088068 294.222496 
L 370.733504 291.653041 
L 371.378941 283.897542 
L 372.669814 250.43133 
L 373.31525 239.606759 
L 373.960687 238.536153 
L 374.606123 241.602531 
L 375.25156 243.738357 
L 375.896996 244.75375 
L 376.542433 242.997686 
L 377.187869 242.691991 
L 377.833306 236.968624 
L 378.478742 226.767563 
L 379.124179 209.947597 
L 379.769615 207.61381 
L 380.415052 214.745799 
L 381.060488 223.396837 
L 381.705924 234.461115 
L 382.996797 267.315937 
L 383.642234 278.489296 
L 384.28767 284.943908 
L 384.933107 286.414477 
L 385.578543 285.292697 
L 386.22398 281.862716 
L 386.869416 272.849423 
L 388.160289 239.14081 
L 388.805726 226.607309 
L 389.451162 222.400297 
L 390.096599 227.040938 
L 390.742035 228.981496 
L 391.387472 233.853765 
L 392.032908 243.463635 
L 392.678344 241.862439 
L 393.323781 243.240087 
L 393.969217 235.053652 
L 394.614654 218.331993 
L 395.26009 214.240796 
L 395.905527 220.715607 
L 396.550963 229.227938 
L 397.1964 240.580405 
L 398.487273 274.173204 
L 398.487273 274.173204 
" clip-path="url(#pe971cea90e)" style="fill: none; stroke: #1f77b4; stroke-width: 1.5; stroke-linecap: square"/>
   </g>
   <g id="patch_8">
    <path d="M 57.6 307.584 
L 57.6 201.1392 
" style="fill: none; stroke: #000000; stroke-width: 0.8; stroke-linejoin: miter; stroke-linecap: square"/>
   </g>
   <g id="patch_9">
    <path d="M 414.72 307.584 
L 414.72 201.1392 
" style="fill: none; stroke: #000000; stroke-width: 0.8; stroke-linejoin: miter; stroke-linecap: square"/>
   </g>
   <g id="patch_10">
    <path d="M 57.6 307.584 
L 414.72 307.584 
" style="fill: none; stroke: #000000; stroke-width: 0.8; stroke-linejoin: miter; stroke-linecap: square"/>
   </g>
   <g id="patch_11">
    <path d="M 57.6 201.1392 
L 414.72 201.1392 
" style="fill: none; stroke: #000000; stroke-width: 0.8; stroke-linejoin: miter; stroke-linecap: square"/>
   </g>
   <g id="text_27">
    <!-- Power_load  -->
    <g transform="translate(200.292188 195.1392)scale(0.12 -0.12)">
     <defs>
      <path id="DejaVuSans-6c" d="M 603 4863 
L 1178 4863 
L 1178 0 
L 603 0 
L 603 4863 
z
" transform="scale(0.015625)"/>
     </defs>
     <use xlink:href="#DejaVuSans-50"/>
     <use xlink:href="#DejaVuSans-6f" x="56.677734"/>
     <use xlink:href="#DejaVuSans-77" x="117.859375"/>
     <use xlink:href="#DejaVuSans-65" x="199.646484"/>
     <use xlink:href="#DejaVuSans-72" x="261.169922"/>
     <use xlink:href="#DejaVuSans-5f" x="302.283203"/>
     <use xlink:href="#DejaVuSans-6c" x="352.283203"/>
     <use xlink:href="#DejaVuSans-6f" x="380.066406"/>
     <use xlink:href="#DejaVuSans-61" x="441.248047"/>
     <use xlink:href="#DejaVuSans-64" x="502.527344"/>
     <use xlink:href="#DejaVuSans-20" x="566.003906"/>
    </g>
   </g>
  </g>
 </g>
 <defs>
  <clipPath id="p7f5ea2b70f">
   <rect x="57.6" y="41.472" width="357.12" height="106.4448"/>
  </clipPath>
  <clipPath id="pe971cea90e">
   <rect x="57.6" y="201.1392" width="357.12" height="106.4448"/>
  </clipPath>
 </defs>
</svg>
